<svg enable-background="new 0 0 3335.3 1783.3" width="3335.3" height="1783.3" viewBox="0 0 3335.3 1783.3" xmlns="http://www.w3.org/2000/svg"><g fill="#fd9014" opacity=".15"><path d="m1556.4 35.9 111.3 1622.3 111.3-1622.3z"/><path d="m1140.2 120 527.5 1538.3-312.5-1596z"/><path d="m760 308.9 907.7 1349.4-715-1460.7z"/><path d="m441.7 589.7 1226.1 1068.5-1068.6-1225.9z"/><path d="m206.9 943.4 1460.8 714.8-1349.5-907.5z"/><path d="m71.6 1345.9 1596.1 312.4-1538.4-527.4z"/><path d="m45.2 1769.6 1622.5-111.3-1622.5-111.4z"/><path d="m1980.1 62.3-312.4 1595.9 527.4-1538.2z"/><path d="m2382.5 197.6-714.8 1460.7 907.5-1349.4z"/><path d="m2736.3 432.3-1068.6 1225.9 1225.9-1068.5z"/><path d="m3017.1 750.7-1349.4 907.5 1460.7-714.8z"/><path d="m3206 1130.9-1538.3 527.4 1595.9-312.4z"/><path d="m1667.7 1658.2 1622.3 111.3v-222.6z"/></g></svg>
