<?xml version="1.0" encoding="utf-8"?>
<!-- Generator: Adobe Illustrator 24.2.1, SVG Export Plug-In . SVG Version: 6.00 Build 0)  -->
<svg version="1.1" xmlns="http://www.w3.org/2000/svg" xmlns:xlink="http://www.w3.org/1999/xlink" x="0px" y="0px"
	 viewBox="0 0 425.23 874" style="enable-background:new 0 0 425.23 874;" xml:space="preserve">
<style type="text/css">
	.st0{fill:#33342E;}
	.st1{fill:none;}
</style>
<g id="bg">
</g>
<g id="logo">
	<g>
		<path class="st0" d="M0,181v1.67v145.87v332.85L212.61,874l212.61-212.61V328.54V182.67V181H0z M340.78,295.34
			c-4.04-31.39-19.36-59.29-41.78-79.47h93.03v79.47H340.78z M392.03,591.98l-120.76-211.4l120.76,97.76V591.98z M33.2,477.47
			l121.77-97.76L33.2,592.17V477.47z M196.73,373.61l-0.48,437.08L37.31,651.75L196.73,373.61z M229.93,375.14l158,276.6
			L229.45,810.21L229.93,375.14z M117.98,295.34c7.88-45.09,47.32-79.47,94.63-79.47s86.75,34.38,94.63,79.47H117.98z M33.2,295.34
			v-79.47h93.03c-22.42,20.18-37.74,48.08-41.78,79.47H33.2z M83.35,328.54h82.33L33.2,434.89V328.54H83.35z M392.03,435.62
			L259.75,328.54h82.13h50.15V435.62z"/>
		<g>
			<polygon class="st1" points="300.58,50.43 300.58,62.03 309.95,62.03 302.04,50.43 			"/>
			<polygon class="st1" points="289.92,62.03 299.29,62.03 299.29,50.43 297.82,50.43 			"/>
			<path class="st1" d="M201.06,100.18c-0.03-0.08-0.07-0.15-0.1-0.23l-6.09-0.64l-5.37-0.57c0.38,0.75,0.76,1.47,1.14,2.18
				c0.05,0.1,0.1,0.19,0.16,0.29c0.38,0.69,0.77,1.36,1.15,2.01c0.04,0.06,0.07,0.12,0.11,0.18c2.53,4.2,5.19,7.52,7.92,10.15
				l1.18-13.17c0,0,0,0,0,0C201.12,100.32,201.09,100.25,201.06,100.18z"/>
			<path class="st0" d="M157.71,111.5V92.11h-5.35V75.48h-1.46v-8.47h-3.39v-6.1h-3.52v-2.6h-4.58l-0.59-13.39h0.59
				c0.49,0,0.88-0.4,0.88-0.88c0-0.49-0.4-0.88-0.88-0.88h-0.67L137.64,18h-0.34h0h-0.34h0l-1.11,25.16h-0.67
				c-0.49,0-0.88,0.4-0.88,0.88c0,0.49,0.4,0.88,0.88,0.88h0.59l-0.59,13.39h-4.58v2.6h-3.52v0v6.1h-3.39v8.47h-1.46v16.62h-5.35
				v19.39h-3.67V167h48.16v-55.5H157.71z"/>
			<polygon class="st0" points="424.61,110.33 424.61,105.89 404.37,90 384.13,105.89 384.13,110.33 384.13,167 424.61,167 			"/>
			<path class="st0" d="M42.05,160.93v-5.17V152v-5.16v-3.76v-5.16v-3.76v-4.71h-3.98v-0.09v-25.17v-0.09l-5.44,0.01
				c-0.03-0.09-0.07-0.18-0.1-0.27v-1.9c0-1.82-0.45-3.53-1.24-5.04v-1.34c0-1.84-0.53-3.55-1.42-5.02v-0.86c0-2.37-1.01-4.5-2.62-6
				l-2.18-8.51h0.22c0.77,0,1.39-0.62,1.39-1.39c0-0.77-0.62-1.39-1.39-1.39h-1.89l-1.74-29.44l-1.74,29.44h-1.89
				c-0.38,0-0.73,0.16-0.99,0.41c-0.25,0.25-0.41,0.6-0.41,0.99c0,0.38,0.16,0.73,0.41,0.99c0.25,0.25,0.6,0.41,0.99,0.41h0.22
				l-0.65,2.54l-1.53,5.98l0,0c-0.4,0.37-0.76,0.78-1.08,1.23c0,0-0.01,0.01-0.01,0.01c-0.15,0.21-0.29,0.43-0.42,0.66
				c-0.01,0.02-0.02,0.03-0.03,0.05c-0.12,0.21-0.23,0.43-0.33,0.66c-0.01,0.03-0.03,0.06-0.04,0.09c-0.09,0.21-0.17,0.42-0.25,0.64
				c-0.02,0.05-0.04,0.1-0.05,0.14c-0.07,0.2-0.12,0.41-0.17,0.62c-0.02,0.07-0.04,0.13-0.05,0.19c-0.04,0.21-0.07,0.42-0.1,0.63
				c-0.01,0.07-0.02,0.14-0.03,0.21c-0.03,0.28-0.05,0.57-0.05,0.86v0.86l0,0c-0.31,0.51-0.58,1.06-0.8,1.63
				c-0.03,0.08-0.06,0.15-0.08,0.23c-0.05,0.15-0.11,0.31-0.15,0.46c-0.07,0.23-0.13,0.45-0.18,0.69c-0.02,0.09-0.03,0.18-0.05,0.27
				c-0.04,0.2-0.07,0.4-0.09,0.6c-0.01,0.09-0.02,0.18-0.03,0.27c-0.03,0.29-0.04,0.57-0.04,0.86v1.34c0,0,0,0,0,0.01
				c-0.11,0.2-0.21,0.41-0.3,0.62c-0.06,0.13-0.11,0.26-0.17,0.4c-0.07,0.19-0.14,0.38-0.21,0.57c-0.05,0.14-0.09,0.28-0.13,0.42
				c-0.06,0.22-0.12,0.44-0.17,0.66c-0.02,0.09-0.04,0.18-0.06,0.27c-0.06,0.29-0.1,0.59-0.14,0.89c-0.01,0.07-0.01,0.14-0.02,0.22
				c-0.03,0.33-0.05,0.65-0.05,0.99v1.9c-0.04,0.11-0.08,0.22-0.12,0.33l-5.42,0.01v25.26l-3.98,0v4.71v3.76v5.16v3.76V152v3.76
				v5.17v3.76V167h40.78v-2.32V160.93z"/>
			<polygon class="st0" points="366.19,131.39 366.19,100.86 366.19,81.08 361.93,81.08 361.93,81.08 361.87,81.08 351.82,68 
				341.76,81.08 341.76,81.08 337.5,81.08 337.5,100.86 337.5,131.39 333.24,131.39 333.24,131.39 333.24,167 370.45,167 
				370.45,131.39 			"/>
			<path class="st0" d="M101.42,104.8v-1.65v-2.55h-9.49C90.85,92.9,84.94,87,77.84,87h0c-0.44,0-0.88,0.02-1.32,0.07
				s-0.86,0.11-1.28,0.2c-1.69,0.35-3.27,1.04-4.69,2c-1.42,0.96-2.69,2.2-3.74,3.64c-1.57,2.16-2.66,4.8-3.06,7.68h-9.49v2.55v1.65
				v2.55v0V167h47.16v-59.65V104.8z"/>
			<path class="st0" d="M318.34,163.78v-4.35v-0.9v-4.35v-0.9v-4.35v-0.9v-4.35v-0.9v-4.35v-0.9v-4.35v-0.9v-4.35v-0.9v-4.35v-0.9
				v-4.35v-0.9v-4.35v-0.9v-4.35V106v-4.35v-0.9V96.4v-0.9v-4.35v-0.9v-4.35v-0.9v-4.35v-0.9v-4.35v-0.9v-3.52v-1.55h-4.16v-5.73
				v-1.65h-3.36l-7.91-11.6h2.72v-2.99h-5.05v-8.32h1.5v-1.25h-1.5v-9.49h1.5v-1.25h-1.5v-9.49h1.5V16.4h-1.5V6.91h1.5V5.66h-1.5
				V0.65c0-0.36-0.29-0.65-0.65-0.65h0c-0.18,0-0.34,0.07-0.46,0.19c-0.12,0.12-0.19,0.28-0.19,0.46v5.01h-1.5v1.25h1.5v9.49h-1.5
				v1.25h1.5v9.49h-1.5v1.25h1.5v9.49h-1.5v1.25h1.5v8.32h-5.05v2.99h2.72l-7.91,11.6h-3.36h0v1.65v5.73h-4.16v1.55v3.52v0.9v4.35
				v0.9v4.35v0.9v0v4.35v0.9v4.35v0v0.9v4.35v0.9V106v0.9v4.35v0.9v4.35v0.9v4.35v0.9v0v4.35v0.9v4.35v0v0.9v4.35v0.9v4.35v0.9v4.35
				v0.9v4.35v0.9v4.35v0.9v0v4.35v0.9V167h36.81v-2.31V163.78z M299.29,62.03h-9.37l7.91-11.6h1.46V62.03z M300.58,62.03v-11.6h1.46
				l7.91,11.6H300.58z"/>
			<path class="st0" d="M269.21,164.25l3.79-4.4v-3.75l-16.45-13.22L240.1,158.7l7.96-7.66c0,0-9.15-5.47-9.24-6.23
				c-0.69-5.97,0.37-16.68-4.98-19.13c-1.28-0.59-2.95-0.89-4.93-1.12l-2.17-24.16c0.03-0.07,0.07-0.13,0.1-0.2
				c0.03-0.08,0.07-0.15,0.1-0.23l15.32-1.62l-14.77-1.56c-0.05-0.92-0.26-1.82-0.63-2.66l12.75-6.82l-14.55,4.2
				c-0.67-0.69-1.45-1.31-2.33-1.85l10.17-10.7l-13.44,9.2c-1.16-0.38-2.41-0.63-3.72-0.76l-1.79-16.93v0l0,0l-1.79,16.93
				c0,0,0,0,0,0c-0.65,0.06-1.29,0.16-1.9,0.28c-0.01,0-0.01,0-0.02,0c-0.62,0.13-1.22,0.28-1.8,0.47c0,0,0,0,0,0l-13.44-9.2l0,0
				l0,0l10.17,10.7c-0.41,0.26-0.8,0.53-1.17,0.82c-0.05,0.04-0.1,0.08-0.14,0.12c-0.36,0.29-0.7,0.6-1.01,0.92c0,0,0,0,0,0
				l-14.55-4.2l12.75,6.82c-0.06,0.13-0.1,0.26-0.15,0.4c-0.05,0.12-0.09,0.25-0.13,0.38c-0.05,0.17-0.1,0.33-0.14,0.5
				c-0.01,0.04-0.02,0.09-0.03,0.13c-0.09,0.41-0.15,0.83-0.17,1.26l-11.29,1.19c-0.36-0.74-0.72-1.48-1.08-2.27c0,0-0.03,0-0.06,0
				c0,0,0,0-0.01,0c-0.13,0-0.44,0.02-0.89,0.07c0,0,0,0,0,0c0,0,0,0,0,0c-0.34-0.91-0.66-1.81-0.97-2.69
				c-0.03-0.07-0.05-0.14-0.08-0.21c-0.29-0.84-0.57-1.66-0.84-2.47c-0.04-0.11-0.07-0.22-0.11-0.33c-0.26-0.78-0.5-1.55-0.73-2.3
				c-0.04-0.13-0.08-0.27-0.12-0.4c-0.22-0.73-0.43-1.44-0.64-2.15c-0.04-0.15-0.09-0.31-0.13-0.46c-0.19-0.68-0.38-1.35-0.55-2.01
				c-0.04-0.17-0.09-0.34-0.13-0.5c-0.17-0.64-0.32-1.26-0.47-1.88c-0.04-0.18-0.09-0.36-0.13-0.54c-0.14-0.6-0.28-1.18-0.4-1.76
				c-0.04-0.19-0.08-0.38-0.12-0.57c-0.12-0.56-0.23-1.1-0.34-1.64c-0.04-0.2-0.08-0.4-0.11-0.6c-0.1-0.52-0.19-1.03-0.28-1.53
				c-0.04-0.21-0.07-0.42-0.1-0.63c-0.08-0.48-0.16-0.95-0.23-1.42c-0.03-0.22-0.06-0.44-0.09-0.66c-0.06-0.44-0.12-0.88-0.18-1.3
				c-0.03-0.24-0.05-0.47-0.08-0.7c-0.05-0.4-0.09-0.8-0.13-1.18c-0.03-0.26-0.05-0.51-0.07-0.77c-0.03-0.35-0.07-0.7-0.09-1.04
				c-0.02-0.29-0.04-0.57-0.06-0.86c-0.02-0.29-0.04-0.59-0.06-0.88c-0.02-0.34-0.03-0.66-0.04-0.99c-0.01-0.22-0.02-0.45-0.03-0.68
				c-0.02-0.54-0.03-1.07-0.03-1.59c0,0,0,0,0-0.01c-0.01-0.89,1.33-1.65,1.67-2.46c0.05-0.12,0.08-0.23,0.08-0.35
				c0-0.75,0-4.35,0-5.82c0,0,0-0.01,0-0.01c0-0.02,0.01-0.03,0.01-0.04v-1.09c0-0.71-0.57-1.28-1.28-1.28
				c-0.14,0-0.27,0.03-0.4,0.08c-0.06,0.02-0.11,0.04-0.16,0.06l0.26-7.64l0.03-0.8h6.51v-7.55v0h-6.25l0.12-3.64
				c2.54-1.66,3.37-4.08,3.3-6.63c-0.03-1.28-0.29-2.58-0.67-3.84c-1.28-4.28-3.95-8-3.95-8c0.09,0.9,0.08,1.72-0.01,2.48
				c-0.4,3.3-2.37,5.55-4.9,8.85c-0.58,0.76-0.95,1.49-1.16,2.17c-0.14,0.45-0.21,0.88-0.22,1.29c-0.09,2.23,1.38,3.69,1.38,3.69
				l0.12,3.64h-6.25v7.55h0h6.51l0.02,0.63l0.21,6.24c0,0,0,0,0,0c-0.4,0.04-0.77,0.15-1.12,0.32c0,0,0,0,0,0
				c-0.17,0.08-0.32,0.18-0.47,0.29c-0.01,0.01-0.03,0.02-0.04,0.03c-0.13,0.1-0.26,0.21-0.37,0.34c-0.03,0.03-0.05,0.07-0.08,0.1
				c-0.09,0.11-0.18,0.22-0.26,0.34c-0.04,0.06-0.07,0.13-0.11,0.2c-0.06,0.1-0.11,0.2-0.16,0.31c-0.04,0.1-0.07,0.22-0.1,0.33
				c-0.02,0.08-0.05,0.16-0.07,0.24c-0.04,0.2-0.06,0.4-0.06,0.62v0v4.67c0,0.21,0.02,0.41,0.06,0.61c0.02,0.08,0.04,0.15,0.07,0.23
				c0.03,0.11,0.06,0.23,0.1,0.33c0.04,0.1,0.09,0.19,0.14,0.29c0.04,0.07,0.07,0.15,0.12,0.22c0.07,0.11,0.15,0.21,0.23,0.31
				c0.03,0.04,0.07,0.09,0.1,0.13c0.1,0.11,0.21,0.21,0.33,0.31c0.02,0.02,0.05,0.04,0.07,0.06c0.13,0.1,0.28,0.19,0.43,0.28
				c0.01,0.01,0.02,0.01,0.03,0.02c0.16,0.09,0.33,0.16,0.51,0.21c0,0,0,0,0,0c0.18,0.06,0.37,0.1,0.56,0.12
				c-0.09,2.31-0.15,4.57-0.17,6.77c0,0.05,0,0.11,0,0.16c-0.01,1.02-0.01,2.02-0.01,3.01c0,0.11,0,0.21,0,0.32
				c0,1.02,0.01,2.03,0.03,3.03c0,0,0,0.01,0,0.01c0.03,2.09,0.09,4.11,0.17,6.07c0,0.02,0,0.05,0,0.07
				c0.04,0.91,0.08,1.81,0.13,2.69c0.01,0.11,0.01,0.21,0.02,0.32c0.05,0.85,0.1,1.68,0.15,2.49c0,0.06,0.01,0.11,0.01,0.17
				c0.12,1.79,0.25,3.51,0.39,5.14c0,0.01,0,0.01,0,0.02c0.07,0.78,0.14,1.53,0.21,2.27c0.01,0.1,0.02,0.21,0.03,0.31
				c0.07,0.67,0.13,1.33,0.2,1.97c0.01,0.08,0.02,0.15,0.02,0.23c0.24,2.17,0.49,4.14,0.73,5.9c0,0.03,0.01,0.06,0.01,0.09
				c0.08,0.58,0.16,1.13,0.24,1.66c-0.19,0.29-0.37,0.59-0.55,0.91c-0.02,0.03-0.04,0.06-0.05,0.1c-0.16,0.29-0.31,0.58-0.46,0.89
				c-0.03,0.06-0.06,0.13-0.09,0.19c-0.13,0.28-0.26,0.58-0.38,0.88c-0.04,0.09-0.07,0.18-0.11,0.27c-0.11,0.28-0.21,0.58-0.31,0.88
				c-0.04,0.12-0.08,0.24-0.12,0.36c-0.09,0.29-0.17,0.59-0.25,0.89c-0.04,0.14-0.08,0.28-0.11,0.43c-0.07,0.3-0.13,0.61-0.2,0.93
				c-0.03,0.16-0.07,0.31-0.09,0.47c-0.06,0.34-0.11,0.69-0.15,1.04c-0.02,0.15-0.05,0.3-0.06,0.46c-0.06,0.51-0.11,1.04-0.14,1.59
				c0,0,0.2,0.53,0.58,1.45c1.03,2.55,3.36,8.13,6.35,14.14c0.27,0.55,0.55,1.1,0.83,1.65c1.97,3.86,3.44,6.87,4.47,10.2
				c1.32,4.28,1.92,9.08,1.92,16.89c0,1.87,0,5.46,0,10.26h80.86C269.26,166.16,269.43,165.17,269.21,164.25z M199.97,113.55
				c-2.72-2.64-5.39-5.95-7.92-10.15c-0.04-0.06-0.07-0.12-0.11-0.18c-0.39-0.65-0.77-1.32-1.15-2.01c-0.05-0.1-0.1-0.19-0.16-0.29
				c-0.38-0.7-0.76-1.43-1.14-2.18l5.37,0.57l6.09,0.64c0.03,0.08,0.07,0.16,0.1,0.23c0.03,0.07,0.06,0.13,0.09,0.2c0,0,0,0,0,0
				L199.97,113.55z"/>
		</g>
	</g>
</g>
</svg>
