<?xml version="1.0" encoding="utf-8"?>
<!-- Generator: Adobe Illustrator 24.2.1, SVG Export Plug-In . SVG Version: 6.00 Build 0)  -->
<svg version="1.1" id="Layer_1" xmlns="http://www.w3.org/2000/svg" xmlns:xlink="http://www.w3.org/1999/xlink" x="0px" y="0px"
	 viewBox="0 0 425.2 874" style="enable-background:new 0 0 425.2 874;" xml:space="preserve">
<style type="text/css">
	.st0{fill:#E3EDDF;}
</style>
<path class="st0" d="M0,181v1.7v145.9v332.9L212.6,874l212.6-212.6V328.5V182.7V181L0,181z M340.8,295.3
	c-4-31.4-19.4-59.3-41.8-79.5h93v79.5H340.8z M392,592L271.3,380.6L392,478.3V592z M33.2,477.5L155,379.7L33.2,592.2L33.2,477.5z
	 M196.7,373.6l-0.5,437.1L37.3,651.7L196.7,373.6z M229.9,375.1l158,276.6L229.4,810.2L229.9,375.1z M118,295.3
	c7.9-45.1,47.3-79.5,94.6-79.5s86.8,34.4,94.6,79.5H118z M33.2,295.3v-79.5h93c-22.4,20.2-37.7,48.1-41.8,79.5H33.2z M83.4,328.5
	h82.3L33.2,434.9V328.5H83.4z M392,435.6L259.8,328.5h82.1H392V435.6z"/>
<g>
	<path class="st0" d="M300.6,50.4V62h9.4L302,50.4H300.6z"/>
	<path class="st0" d="M289.9,62h9.4V50.4h-1.5L289.9,62z"/>
	<path class="st0" d="M201.1,100.2c0-0.1-0.1-0.2-0.1-0.2l-6.1-0.6l-5.4-0.6c0.4,0.8,0.8,1.5,1.1,2.2c0.1,0.1,0.1,0.2,0.2,0.3
		c0.4,0.7,0.8,1.4,1.1,2c0,0.1,0.1,0.1,0.1,0.2c2.5,4.2,5.2,7.5,7.9,10.2l1.2-13.2C201.1,100.3,201.1,100.3,201.1,100.2L201.1,100.2
		z"/>
</g>
<g>
	<path class="st0" d="M157.7,111.5V92.1h-5.4V75.5h-1.5V67h-3.4v-6.1H144v-2.6h-4.6l-0.6-13.4h0.6c0.5,0,0.9-0.4,0.9-0.9
		c0-0.5-0.4-0.9-0.9-0.9h-0.7L137.6,18h-0.3H137l-1.1,25.2h-0.7c-0.5,0-0.9,0.4-0.9,0.9c0,0.5,0.4,0.9,0.9,0.9h0.6l-0.6,13.4h-4.6
		v2.6h-3.5V67h-3.4v8.5h-1.5v16.6h-5.3v19.4h-3.7V167h48.2v-55.5H157.7z"/>
	<path class="st0" d="M424.6,110.3v-4.4L404.4,90l-20.2,15.9v4.4V167h40.5L424.6,110.3z"/>
	<path class="st0" d="M42,160.9v-5.2V152v-5.2v-3.8v-5.2v-3.8v-4.7h-4v-0.1v-25.2v-0.1l-5.4,0c0-0.1-0.1-0.2-0.1-0.3v-1.9
		c0-1.8-0.5-3.5-1.2-5v-1.3c0-1.8-0.5-3.6-1.4-5v-0.9c0-2.4-1-4.5-2.6-6l-2.2-8.5h0.2c0.8,0,1.4-0.6,1.4-1.4s-0.6-1.4-1.4-1.4h-1.9
		L21.7,43l-1.7,29.4H18c-0.4,0-0.7,0.2-1,0.4c-0.2,0.2-0.4,0.6-0.4,1c0,0.4,0.2,0.7,0.4,1c0.2,0.2,0.6,0.4,1,0.4h0.2l-0.6,2.5
		l-1.5,6c-0.4,0.4-0.8,0.8-1.1,1.2l0,0c-0.1,0.2-0.3,0.4-0.4,0.7c0,0,0,0,0,0.1c-0.1,0.2-0.2,0.4-0.3,0.7c0,0,0,0.1,0,0.1
		c-0.1,0.2-0.2,0.4-0.2,0.6c0,0.1,0,0.1-0.1,0.1c-0.1,0.2-0.1,0.4-0.2,0.6c0,0.1,0,0.1-0.1,0.2c0,0.2-0.1,0.4-0.1,0.6
		c0,0.1,0,0.1,0,0.2c0,0.3-0.1,0.6-0.1,0.9v0.9c-0.3,0.5-0.6,1.1-0.8,1.6c0,0.1-0.1,0.2-0.1,0.2c-0.1,0.2-0.1,0.3-0.1,0.5
		c-0.1,0.2-0.1,0.4-0.2,0.7c0,0.1,0,0.2-0.1,0.3c0,0.2-0.1,0.4-0.1,0.6c0,0.1,0,0.2,0,0.3c0,0.3,0,0.6,0,0.9v1.3v0
		c-0.1,0.2-0.2,0.4-0.3,0.6c-0.1,0.1-0.1,0.3-0.2,0.4c-0.1,0.2-0.1,0.4-0.2,0.6c-0.1,0.1-0.1,0.3-0.1,0.4c-0.1,0.2-0.1,0.4-0.2,0.7
		c0,0.1,0,0.2-0.1,0.3c-0.1,0.3-0.1,0.6-0.1,0.9c0,0.1,0,0.1,0,0.2c0,0.3-0.1,0.7-0.1,1v1.9c0,0.1-0.1,0.2-0.1,0.3l-5.4,0v25.3h-4
		v4.7v3.8v5.2v3.8v5.1v3.8v5.2v3.8v2.3H42v-2.3V160.9z"/>
	<path class="st0" d="M366.2,131.4v-30.5V81.1h-4.3h-0.1l-10-13.1l-10.1,13.1h-4.3v19.8v30.5h-4.3V167h37.2v-35.6H366.2z"/>
	<path class="st0" d="M101.4,104.8v-1.7v-2.6h-9.5c-1.1-7.7-7-13.6-14.1-13.6c-0.4,0-0.9,0-1.3,0.1s-0.9,0.1-1.3,0.2
		c-1.7,0.3-3.3,1-4.7,2s-2.7,2.2-3.7,3.6c-1.6,2.2-2.7,4.8-3.1,7.7h-9.5v2.6v1.7v2.6V167h47.2v-59.7V104.8z"/>
	<path class="st0" d="M318.3,163.8v-4.4v-0.9v-4.4v-0.9v-4.4V148v-4.4v-0.9v-4.4v-0.9v-4.4v-0.9v-4.3V127v-4.3v-0.9v-4.3v-0.9v-4.3
		v-0.9v-4.3V106v-4.3v-0.9v-4.3v-0.9v-4.3v-0.9v-4.3V85v-4.3v-0.9v-4.3v-0.9V71v-1.6h-4.2v-5.7V62h-3.4l-7.9-11.6h2.7v-3h-5v-8.3
		h1.5v-1.2h-1.5v-9.5h1.5v-1.2h-1.5v-9.5h1.5v-1.3h-1.5V6.9h1.5V5.7h-1.5v-5c0-0.4-0.3-0.6-0.6-0.6c-0.2,0-0.3,0.1-0.5,0.2
		s-0.2,0.3-0.2,0.5v5h-1.5v1.2h1.5v9.5h-1.5v1.2h1.5v9.5h-1.5v1.2h1.5v9.5h-1.5v1.2h1.5v8.3h-5v3h2.7L289,62h-3.4v1.7v5.7h-4.2V71
		v3.5v0.9v4.3v0.9V85v0.9v4.3v0.9v4.3v0.9v4.3v0.9v4.4v0.9v4.3v0.9v4.3v0.9v4.3v0.9v4.3v0.9v4.4v0.9v4.4v0.9v4.4v0.9v4.4v0.9v4.4
		v0.9v4.4v0.9v4.4v0.9v2.4h36.8v-2.3L318.3,163.8L318.3,163.8z M299.3,62h-9.4l7.9-11.6h1.5V62z M300.6,62V50.4h1.5L310,62H300.6z"
		/>
	<path class="st0" d="M269.2,164.2l3.8-4.4v-3.8l-16.5-13.2l-16.4,15.8l8-7.7c0,0-9.1-5.5-9.2-6.2c-0.7-6,0.4-16.7-5-19.1
		c-1.3-0.6-2.9-0.9-4.9-1.1l-2.2-24.2c0-0.1,0.1-0.1,0.1-0.2c0-0.1,0.1-0.2,0.1-0.2l15.3-1.6l-14.8-1.6c-0.1-0.9-0.3-1.8-0.6-2.7
		l12.8-6.8l-14.6,4.2c-0.7-0.7-1.4-1.3-2.3-1.8L232.9,79l-13.4,9.2c-1.2-0.4-2.4-0.6-3.7-0.8l-1.8-16.9l-1.8,16.9
		c-0.6,0.1-1.3,0.2-1.9,0.3c0,0,0,0,0,0c-0.6,0.1-1.2,0.3-1.8,0.5L195,79l10.2,10.7c-0.4,0.3-0.8,0.5-1.2,0.8
		c-0.1,0-0.1,0.1-0.1,0.1c-0.4,0.3-0.7,0.6-1,0.9l-14.6-4.2l12.8,6.8c-0.1,0.1-0.1,0.3-0.1,0.4c-0.1,0.1-0.1,0.2-0.1,0.4
		c-0.1,0.2-0.1,0.3-0.1,0.5c0,0,0,0.1,0,0.1c-0.1,0.4-0.1,0.8-0.2,1.3L189.1,98c-0.4-0.7-0.7-1.5-1.1-2.3c0,0,0,0-0.1,0c0,0,0,0,0,0
		c-0.1,0-0.4,0-0.9,0.1c-0.3-0.9-0.7-1.8-1-2.7c0-0.1-0.1-0.1-0.1-0.2c-0.3-0.8-0.6-1.7-0.8-2.5c0-0.1-0.1-0.2-0.1-0.3
		c-0.3-0.8-0.5-1.6-0.7-2.3c0-0.1-0.1-0.3-0.1-0.4c-0.2-0.7-0.4-1.4-0.6-2.2c0-0.2-0.1-0.3-0.1-0.5c-0.2-0.7-0.4-1.3-0.6-2
		c0-0.2-0.1-0.3-0.1-0.5c-0.2-0.6-0.3-1.3-0.5-1.9c0-0.2-0.1-0.4-0.1-0.5c-0.1-0.6-0.3-1.2-0.4-1.8c0-0.2-0.1-0.4-0.1-0.6
		c-0.1-0.6-0.2-1.1-0.3-1.6c0-0.2-0.1-0.4-0.1-0.6c-0.1-0.5-0.2-1-0.3-1.5c0-0.2-0.1-0.4-0.1-0.6c-0.1-0.5-0.2-0.9-0.2-1.4
		c0-0.2-0.1-0.4-0.1-0.7c-0.1-0.4-0.1-0.9-0.2-1.3c0-0.2-0.1-0.5-0.1-0.7c-0.1-0.4-0.1-0.8-0.1-1.2c0-0.3-0.1-0.5-0.1-0.8
		c0-0.3-0.1-0.7-0.1-1c0-0.3,0-0.6-0.1-0.9s0-0.6-0.1-0.9c0-0.3,0-0.7,0-1c0-0.2,0-0.5,0-0.7c0-0.5,0-1.1,0-1.6c0,0,0,0,0,0
		c0-0.9,1.3-1.7,1.7-2.5c0.1-0.1,0.1-0.2,0.1-0.3c0-0.8,0-4.3,0-5.8v0c0,0,0,0,0,0v-1.1c0-0.7-0.6-1.3-1.3-1.3c-0.1,0-0.3,0-0.4,0.1
		c-0.1,0-0.1,0-0.2,0.1l0.3-7.6l0-0.8h6.5v-7.5h-6.2l0.1-3.6c2.5-1.7,3.4-4.1,3.3-6.6c0-1.3-0.3-2.6-0.7-3.8c-1.3-4.3-3.9-8-3.9-8
		c0.1,0.9,0.1,1.7,0,2.5c-0.4,3.3-2.4,5.5-4.9,8.9c-0.6,0.8-0.9,1.5-1.2,2.2c-0.1,0.5-0.2,0.9-0.2,1.3c-0.1,2.2,1.4,3.7,1.4,3.7
		l0.1,3.6H168v7.5h6.5l0,0.6l0.2,6.2c-0.4,0-0.8,0.2-1.1,0.3c-0.2,0.1-0.3,0.2-0.5,0.3c0,0,0,0,0,0c-0.1,0.1-0.3,0.2-0.4,0.3
		c0,0-0.1,0.1-0.1,0.1c-0.1,0.1-0.2,0.2-0.3,0.3c0,0.1-0.1,0.1-0.1,0.2c-0.1,0.1-0.1,0.2-0.2,0.3c0,0.1-0.1,0.2-0.1,0.3
		c0,0.1-0.1,0.2-0.1,0.2c0,0.2-0.1,0.4-0.1,0.6v4.7c0,0.2,0,0.4,0.1,0.6c0,0.1,0,0.2,0.1,0.2c0,0.1,0.1,0.2,0.1,0.3s0.1,0.2,0.1,0.3
		c0,0.1,0.1,0.2,0.1,0.2c0.1,0.1,0.1,0.2,0.2,0.3c0,0,0.1,0.1,0.1,0.1c0.1,0.1,0.2,0.2,0.3,0.3c0,0,0.1,0,0.1,0.1
		c0.1,0.1,0.3,0.2,0.4,0.3c0,0,0,0,0,0c0.2,0.1,0.3,0.2,0.5,0.2c0.2,0.1,0.4,0.1,0.6,0.1c-0.1,2.3-0.1,4.6-0.2,6.8v0.2c0,1,0,2,0,3
		v0.3c0,1,0,2,0,3v0c0,2.1,0.1,4.1,0.2,6.1v0.1c0,0.9,0.1,1.8,0.1,2.7c0,0.1,0,0.2,0,0.3c0.1,0.8,0.1,1.7,0.1,2.5c0,0.1,0,0.1,0,0.2
		c0.1,1.8,0.2,3.5,0.4,5.1v0c0.1,0.8,0.1,1.5,0.2,2.3c0,0.1,0,0.2,0,0.3c0.1,0.7,0.1,1.3,0.2,2c0,0.1,0,0.2,0,0.2
		c0.2,2.2,0.5,4.1,0.7,5.9c0,0,0,0.1,0,0.1c0.1,0.6,0.2,1.1,0.2,1.7c-0.2,0.3-0.4,0.6-0.6,0.9c0,0,0,0.1-0.1,0.1
		c-0.2,0.3-0.3,0.6-0.5,0.9c0,0.1-0.1,0.1-0.1,0.2c-0.1,0.3-0.3,0.6-0.4,0.9c0,0.1-0.1,0.2-0.1,0.3c-0.1,0.3-0.2,0.6-0.3,0.9
		c0,0.1-0.1,0.2-0.1,0.4c-0.1,0.3-0.2,0.6-0.2,0.9c0,0.1-0.1,0.3-0.1,0.4c-0.1,0.3-0.1,0.6-0.2,0.9c0,0.2-0.1,0.3-0.1,0.5
		c-0.1,0.3-0.1,0.7-0.1,1c0,0.2-0.1,0.3-0.1,0.5c-0.1,0.5-0.1,1-0.1,1.6c0,0,0.2,0.5,0.6,1.4c1,2.6,3.4,8.1,6.4,14.1
		c0.3,0.6,0.6,1.1,0.8,1.6c2,3.9,3.4,6.9,4.5,10.2c1.3,4.3,1.9,9.1,1.9,16.9v10.3h80.9C269.3,166.2,269.4,165.2,269.2,164.2
		L269.2,164.2z M200,113.6c-2.7-2.6-5.4-5.9-7.9-10.2c0-0.1-0.1-0.1-0.1-0.2c-0.4-0.7-0.8-1.3-1.1-2c-0.1-0.1-0.1-0.2-0.2-0.3
		c-0.4-0.7-0.8-1.4-1.1-2.2l5.4,0.6l6.1,0.6c0,0.1,0.1,0.2,0.1,0.2s0.1,0.1,0.1,0.2L200,113.6z"/>
</g>
</svg>
