<svg enable-background="new 0 0 153.7 250.5" viewBox="0 0 153.7 250.5" xmlns="http://www.w3.org/2000/svg"><path d="m0 0v173.6l76.8 76.8 76.9-76.9v-173.5zm123.2 41.3c-1.4-11.1-6.8-21.3-15.1-28.7h33.6v28.7zm18.5 107.3-43.6-76.5 43.7 35.3v41.2zm-129.7-41.4 44-35.3-44 76.8zm59.1-37.6-.2 158-57.5-57.5zm12 .6 57.1 100-57.3 57.3zm-40.4-28.9c3.3-18.9 21.2-31.5 40.1-28.2 14.4 2.5 25.7 13.8 28.2 28.2zm-30.7 0v-28.7h33.6c-8.3 7.5-13.6 17.7-15.1 28.7zm18.1 12h29.7l-47.8 38.5v-38.5zm111.6 38.7-47.9-38.7h47.8z" fill="#FFDE16"/></svg>
