<svg xmlns="http://www.w3.org/2000/svg" width="3.5in" height="4in" viewBox="0 0 252 288"><title>Sunrise_Primary_Yellow</title><path d="M49.15,18.76V192.39L126,269.24l76.85-76.85V18.76ZM172.33,60.09a46.7,46.7,0,0,0-15.11-28.73h33.63V60.09Zm18.52,107.22L147.2,90.9l43.65,35.33ZM61.15,125.92l44-35.34-44,76.79Zm59.11-37.54-.17,158L62.64,188.91Zm12,.55,57.11,100-57.28,57.28ZM91.8,60.09a34.72,34.72,0,0,1,68.4,0Zm-30.65,0V31.36H94.78A46.7,46.7,0,0,0,79.67,60.09Zm18.13,12H109L61.15,110.53V72.09Zm111.57,38.7L143,72.09h47.81Z" fill="#ffde17"/></svg>