<svg enable-background="new 0 0 252 288" viewBox="0 0 252 288" xmlns="http://www.w3.org/2000/svg"><path d="m49.2 18.8v173.6l76.8 76.8 76.9-76.9v-173.5zm123.1 41.3c-1.4-11.1-6.8-21.3-15.1-28.7h33.6v28.7zm18.6 107.2-43.6-76.4 43.6 35.3zm-129.7-41.4 44-35.3-44 76.8zm59.1-37.5-.2 158-57.5-57.5zm12 .5 57.1 100-57.3 57.3zm-40.5-28.8c3.3-18.9 21.3-31.5 40.2-28.2 14.4 2.5 25.7 13.8 28.2 28.2zm-30.6 0v-28.7h33.6c-8.3 7.4-13.7 17.6-15.1 28.7zm18.1 12h29.7l-47.8 38.4v-38.4zm111.6 38.7-47.9-38.7h47.8z" fill="#e3eddf"/></svg>