<svg enable-background="new 0 0 425.23 874" viewBox="0 0 425.23 874" xmlns="http://www.w3.org/2000/svg"><path d="m0 181v1.67 145.87 332.85l212.61 212.61 212.61-212.61v-332.85-145.87-1.67zm340.78 114.34c-4.04-31.39-19.36-59.29-41.78-79.47h93.03v79.47zm51.25 296.64-120.76-211.4 120.76 97.76zm-358.83-114.51 121.77-97.76-121.77 212.46zm163.53-103.86-.48 437.08-158.94-158.94zm33.2 1.53 158 276.6-158.48 158.47zm-111.95-79.8c7.88-45.09 47.32-79.47 94.63-79.47s86.75 34.38 94.63 79.47zm-84.78 0v-79.47h93.03c-22.42 20.18-37.74 48.08-41.78 79.47zm50.15 33.2h82.33l-132.48 106.35v-106.35zm308.68 107.08-132.28-107.08h82.13 50.15z" fill="#33342e"/><path d="m300.58 50.43v11.6h9.37l-7.91-11.6z" fill="none"/><path d="m289.92 62.03h9.37v-11.6h-1.47z" fill="none"/><path d="m201.06 100.18c-.03-.08-.07-.15-.1-.23l-6.09-.64-5.37-.57c.38.75.76 1.47 1.14 2.18.05.1.1.19.16.29.38.69.77 1.36 1.15 2.01.04.06.07.12.11.18 2.53 4.2 5.19 7.52 7.92 10.15l1.18-13.17c-.04-.06-.07-.13-.1-.2z" fill="none"/><g fill="#33342e"><path d="m157.71 111.5v-19.39h-5.35v-16.63h-1.46v-8.47h-3.39v-6.1h-3.52v-2.6h-4.58l-.59-13.39h.59c.49 0 .88-.4.88-.88 0-.49-.4-.88-.88-.88h-.67l-1.1-25.16h-.34-.34l-1.11 25.16h-.67c-.49 0-.88.4-.88.88 0 .49.4.88.88.88h.59l-.59 13.39h-4.58v2.6h-3.52v6.1h-3.39v8.47h-1.46v16.62h-5.35v19.39h-3.67v55.51h48.16v-55.5z"/><path d="m424.61 110.33v-4.44l-20.24-15.89-20.24 15.89v4.44 56.67h40.48z"/><path d="m42.05 160.93v-5.17-3.76-5.16-3.76-5.16-3.76-4.71h-3.98v-.09-25.17-.09l-5.44.01c-.03-.09-.07-.18-.1-.27v-1.9c0-1.82-.45-3.53-1.24-5.04v-1.34c0-1.84-.53-3.55-1.42-5.02v-.86c0-2.37-1.01-4.5-2.62-6l-2.18-8.51h.22c.77 0 1.39-.62 1.39-1.39s-.62-1.39-1.39-1.39h-1.89l-1.74-29.44-1.74 29.44h-1.89c-.38 0-.73.16-.99.41-.25.25-.41.6-.41.99 0 .38.16.73.41.99.25.25.6.41.99.41h.22l-.65 2.54-1.53 5.98c-.4.37-.76.78-1.08 1.23 0 0-.01.01-.01.01-.15.21-.29.43-.42.66-.01.02-.02.03-.03.05-.12.21-.23.43-.33.66-.01.03-.03.06-.04.09-.09.21-.17.42-.25.64-.02.05-.04.1-.05.14-.07.2-.12.41-.17.62-.02.07-.04.13-.05.19-.04.21-.07.42-.1.63-.01.07-.02.14-.03.21-.03.28-.05.57-.05.86v.86c-.31.51-.58 1.06-.8 1.63-.03.08-.06.15-.08.23-.05.15-.11.31-.15.46-.07.23-.13.45-.18.69-.02.09-.03.18-.05.27-.04.2-.07.4-.09.6-.01.09-.02.18-.03.27-.03.29-.04.57-.04.86v1.34.01c-.11.2-.21.41-.3.62-.06.13-.11.26-.17.4-.07.19-.14.38-.21.57-.05.14-.09.28-.13.42-.06.22-.12.44-.17.66-.02.09-.04.18-.06.27-.06.29-.1.59-.14.89-.01.07-.01.14-.02.22-.03.33-.05.65-.05.99v1.9c-.04.11-.08.22-.12.33l-5.42.01v25.26h-3.98v4.71 3.76 5.16 3.76 5.15 3.76 5.17 3.76 2.31h40.78v-2.32z"/><path d="m366.19 131.39v-30.53-19.78h-4.26-.06l-10.05-13.08-10.06 13.08h-4.26v19.78 30.53h-4.26v35.61h37.21v-35.61z"/><path d="m101.42 104.8v-1.65-2.55h-9.49c-1.08-7.7-6.99-13.6-14.09-13.6-.44 0-.88.02-1.32.07s-.86.11-1.28.2c-1.69.35-3.27 1.04-4.69 2s-2.69 2.2-3.74 3.64c-1.57 2.16-2.66 4.8-3.06 7.68h-9.49v2.55 1.65 2.55 59.66h47.16v-59.65z"/><path d="m318.34 163.78v-4.35-.9-4.35-.9-4.35-.9-4.35-.9-4.35-.9-4.35-.9-4.35-.9-4.35-.9-4.35-.9-4.35-.9-4.35-.93-4.35-.9-4.35-.9-4.35-.9-4.35-.9-4.35-.9-4.35-.9-3.52-1.55h-4.16v-5.73-1.65h-3.36l-7.91-11.6h2.72v-2.99h-5.05v-8.32h1.5v-1.25h-1.5v-9.49h1.5v-1.25h-1.5v-9.49h1.5v-1.26h-1.5v-9.49h1.5v-1.25h-1.5v-5.01c0-.36-.29-.65-.65-.65-.18 0-.34.07-.46.19s-.19.28-.19.46v5.01h-1.5v1.25h1.5v9.49h-1.5v1.25h1.5v9.49h-1.5v1.25h1.5v9.49h-1.5v1.25h1.5v8.32h-5.05v2.99h2.72l-7.91 11.6h-3.36v1.65 5.73h-4.16v1.55 3.52.9 4.35.9 4.35.9 4.35.9 4.35.9 4.35.9 4.36.9 4.35.9 4.35.9 4.35.9 4.35.9 4.35.9 4.35.9 4.35.9 4.35.9 4.35.9 4.35.9 4.35.9 2.35h36.81v-2.31-.91zm-19.05-101.75h-9.37l7.91-11.6h1.46zm1.29 0v-11.6h1.46l7.91 11.6z"/><path d="m269.21 164.25 3.79-4.4v-3.75l-16.45-13.22-16.45 15.82 7.96-7.66s-9.15-5.47-9.24-6.23c-.69-5.97.37-16.68-4.98-19.13-1.28-.59-2.95-.89-4.93-1.12l-2.17-24.16c.03-.07.07-.13.1-.2.03-.08.07-.15.1-.23l15.32-1.62-14.77-1.56c-.05-.92-.26-1.82-.63-2.66l12.75-6.82-14.55 4.2c-.67-.69-1.45-1.31-2.33-1.85l10.17-10.7-13.44 9.2c-1.16-.38-2.41-.63-3.72-.76l-1.79-16.93-1.79 16.93c-.65.06-1.29.16-1.9.28-.01 0-.01 0-.02 0-.62.13-1.22.28-1.8.47l-13.44-9.2 10.17 10.7c-.41.26-.8.53-1.17.82-.05.04-.1.08-.14.12-.36.29-.7.6-1.01.92l-14.55-4.2 12.75 6.82c-.06.13-.1.26-.15.4-.05.12-.09.25-.13.38-.05.17-.1.33-.14.5-.01.04-.02.09-.03.13-.09.41-.15.83-.17 1.26l-11.29 1.19c-.36-.74-.72-1.48-1.08-2.27 0 0-.03 0-.06 0 0 0 0 0-.01 0-.13 0-.44.02-.89.07-.34-.91-.66-1.81-.97-2.69-.03-.07-.05-.14-.08-.21-.29-.84-.57-1.66-.84-2.47-.04-.11-.07-.22-.11-.33-.26-.78-.5-1.55-.73-2.3-.04-.13-.08-.27-.12-.4-.22-.73-.43-1.44-.64-2.15-.04-.15-.09-.31-.13-.46-.19-.68-.38-1.35-.55-2.01-.04-.17-.09-.34-.13-.5-.17-.64-.32-1.26-.47-1.88-.04-.18-.09-.36-.13-.54-.14-.6-.28-1.18-.4-1.76-.04-.19-.08-.38-.12-.57-.12-.56-.23-1.1-.34-1.64-.04-.2-.08-.4-.11-.6-.1-.52-.19-1.03-.28-1.53-.04-.21-.07-.42-.1-.63-.08-.48-.16-.95-.23-1.42-.03-.22-.06-.44-.09-.66-.06-.44-.12-.88-.18-1.3-.03-.24-.05-.47-.08-.7-.05-.4-.09-.8-.13-1.18-.03-.26-.05-.51-.07-.77-.03-.35-.07-.7-.09-1.04-.02-.29-.04-.57-.06-.86s-.04-.59-.06-.88c-.02-.34-.03-.66-.04-.99-.01-.22-.02-.45-.03-.68-.02-.54-.03-1.07-.03-1.59 0 0 0 0 0-.01-.01-.89 1.33-1.65 1.67-2.46.05-.12.08-.23.08-.35 0-.75 0-4.35 0-5.82v-.01c0-.02.01-.03.01-.04v-1.09c0-.71-.57-1.28-1.28-1.28-.14 0-.27.03-.4.08-.06.02-.11.04-.16.06l.26-7.64.03-.8h6.51v-7.55h-6.25l.12-3.64c2.54-1.66 3.37-4.08 3.3-6.63-.03-1.28-.29-2.58-.67-3.84-1.28-4.28-3.95-8-3.95-8 .09.9.08 1.72-.01 2.48-.4 3.3-2.37 5.55-4.9 8.85-.58.76-.95 1.49-1.16 2.17-.14.45-.21.88-.22 1.29-.09 2.23 1.38 3.69 1.38 3.69l.12 3.64h-6.25v7.55h6.51l.02.63.21 6.24c-.4.04-.77.15-1.12.32-.17.08-.32.18-.47.29-.01.01-.03.02-.04.03-.13.1-.26.21-.37.34-.03.03-.05.07-.08.1-.09.11-.18.22-.26.34-.04.06-.07.13-.11.2-.06.1-.11.2-.16.31-.04.1-.07.22-.1.33-.02.08-.05.16-.07.24-.04.2-.06.4-.06.62v4.67c0 .21.02.41.06.61.02.08.04.15.07.23.03.11.06.23.1.33s.09.19.14.29c.04.07.07.15.12.22.07.11.15.21.23.31.03.04.07.09.1.13.1.11.21.21.33.31.02.02.05.04.07.06.13.1.28.19.43.28.01.01.02.01.03.02.16.09.33.16.51.21.18.06.37.1.56.12-.09 2.31-.15 4.57-.17 6.77v.16c-.01 1.02-.01 2.02-.01 3.01v.32c0 1.02.01 2.03.03 3.03v.01c.03 2.09.09 4.11.17 6.07v.07c.04.91.08 1.81.13 2.69.01.11.01.21.02.32.05.85.1 1.68.15 2.49 0 .06.01.11.01.17.12 1.79.25 3.51.39 5.14v.02c.07.78.14 1.53.21 2.27.01.1.02.21.03.31.07.67.13 1.33.2 1.97.01.08.02.15.02.23.24 2.17.49 4.14.73 5.9 0 .03.01.06.01.09.08.58.16 1.13.24 1.66-.19.29-.37.59-.55.91-.02.03-.04.06-.05.1-.16.29-.31.58-.46.89-.03.06-.06.13-.09.19-.13.28-.26.58-.38.88-.04.09-.07.18-.11.27-.11.28-.21.58-.31.88-.04.12-.08.24-.12.36-.09.29-.17.59-.25.89-.04.14-.08.28-.11.43-.07.3-.13.61-.2.93-.03.16-.07.31-.09.47-.06.34-.11.69-.15 1.04-.02.15-.05.3-.06.46-.06.51-.11 1.04-.14 1.59 0 0 .2.53.58 1.45 1.03 2.55 3.36 8.13 6.35 14.14.27.55.55 1.1.83 1.65 1.97 3.86 3.44 6.87 4.47 10.2 1.32 4.28 1.92 9.08 1.92 16.89v10.26h80.86c.52-.9.69-1.89.47-2.81zm-69.24-50.7c-2.72-2.64-5.39-5.95-7.92-10.15-.04-.06-.07-.12-.11-.18-.39-.65-.77-1.32-1.15-2.01-.05-.1-.1-.19-.16-.29-.38-.7-.76-1.43-1.14-2.18l5.37.57 6.09.64c.03.08.07.16.1.23s.06.13.09.2z"/></g></svg>