<svg enable-background="new 0 0 425.2 874" viewBox="0 0 425.2 874" xmlns="http://www.w3.org/2000/svg"><path d="m0 181v1.7 145.9 332.9l212.6 212.5 212.6-212.6v-332.9-145.8-1.7zm340.8 114.3c-4-31.4-19.4-59.3-41.8-79.5h93v79.5zm51.2 296.7-120.7-211.4 120.7 97.7zm-358.8-114.5 121.8-97.8-121.8 212.5zm163.5-103.9-.5 437.1-158.9-159zm33.2 1.5 158 276.6-158.5 158.5zm-111.9-79.8c7.9-45.1 47.3-79.5 94.6-79.5s86.8 34.4 94.6 79.5zm-84.8 0v-79.5h93c-22.4 20.2-37.7 48.1-41.8 79.5zm50.2 33.2h82.3l-132.5 106.4v-106.4zm308.6 107.1-132.2-107.1h82.1 50.1z" fill="#ffde16"/><path d="m300.6 50.4v11.6h9.4l-8-11.6z" fill="none"/><path d="m289.9 62h9.4v-11.6h-1.5z" fill="none"/><path d="m201.1 100.2c0-.1-.1-.2-.1-.2l-6.1-.6-5.4-.6c.4.8.8 1.5 1.1 2.2.1.1.1.2.2.3.4.7.8 1.4 1.1 2 0 .1.1.1.1.2 2.5 4.2 5.2 7.5 7.9 10.2l1.2-13.2c0-.2 0-.2 0-.3z" fill="none"/><g fill="#ffde16"><path d="m157.7 111.5v-19.4h-5.4v-16.6h-1.5v-8.5h-3.4v-6.1h-3.4v-2.6h-4.6l-.6-13.4h.6c.5 0 .9-.4.9-.9s-.4-.9-.9-.9h-.7l-1.1-25.1h-.3-.3l-1.1 25.2h-.7c-.5 0-.9.4-.9.9s.4.9.9.9h.6l-.6 13.4h-4.6v2.6h-3.5v6h-3.4v8.5h-1.5v16.6h-5.3v19.4h-3.7v55.5h48.2v-55.5z"/><path d="m424.6 110.3v-4.4l-20.2-15.9-20.2 15.9v4.4 56.7h40.5z"/><path d="m42 160.9v-5.2-3.7-5.2-3.8-5.2-3.8-4.7h-4v-.1-25.2-.1h-5.4c0-.1-.1-.2-.1-.3v-1.9c0-1.8-.5-3.5-1.2-5v-1.3c0-1.8-.5-3.6-1.4-5v-.9c0-2.4-1-4.5-2.6-6l-2.2-8.5h.2c.8 0 1.4-.6 1.4-1.4s-.6-1.4-1.4-1.4h-1.9l-1.7-29.2-1.7 29.4h-2c-.4 0-.7.2-1 .4-.2.2-.4.6-.4 1s.2.7.4 1c.2.2.6.4 1 .4h.2l-.6 2.5-1.5 6c-.4.4-.8.8-1.1 1.2-.1.2-.3.4-.4.7v.1c-.1.2-.2.4-.3.7v.1c-.1.2-.2.4-.2.6 0 .1 0 .1-.1.1-.1.2-.1.4-.2.6 0 .1 0 .1-.1.2 0 .2-.1.4-.1.6v.2c0 .3-.1.6-.1.9v.9c-.3.5-.6 1.1-.8 1.6 0 .1-.1.2-.1.2-.1.2-.1.3-.1.5-.1.2-.1.4-.2.7 0 .1 0 .2-.1.3 0 .2-.1.4-.1.6v.3.9 1.3c-.1.2-.2.4-.3.6-.1.1-.1.3-.2.4-.1.2-.1.4-.2.6-.1.1-.1.3-.1.4-.1.2-.1.4-.2.7 0 .1 0 .2-.1.3-.1.3-.1.6-.1.9v.2c0 .3-.1.7-.1 1v1.9c0 .1-.1.2-.1.3h-5.4v25.3h-4v4.7 3.8 5.2 3.8 5.1 3.8 5.2 3.8 2.3h40.7v-2.3z"/><path d="m366.2 131.4v-30.5-19.8h-4.3-.1l-10-13.1-10.1 13.1h-4.3v19.8 30.5h-4.3v35.6h37.2v-35.6z"/><path d="m101.4 104.8v-1.7-2.6h-9.5c-1.1-7.7-7-13.6-14.1-13.6-.4 0-.9 0-1.3.1s-.9.1-1.3.2c-1.7.3-3.3 1-4.7 2s-2.7 2.2-3.7 3.6c-1.6 2.2-2.7 4.8-3.1 7.7h-9.5v2.6 1.7 2.6 59.6h47.2v-59.7z"/><path d="m318.3 163.8v-4.4-.9-4.4-.9-4.4-.8-4.4-.9-4.4-.9-4.4-.9-4.3-.8-4.3-.9-4.3-.9-4.3-.9-4.3-1.1-4.3-.9-4.3-.9-4.3-.9-4.3-1.1-4.3-.9-4.3-.9-3.6-1.6h-4.2v-5.7-1.7h-3.4l-7.9-11.6h2.7v-3h-5v-8.3h1.5v-1.2h-1.5v-9.5h1.5v-1.2h-1.5v-9.5h1.5v-1.3h-1.5v-9.5h1.5v-1.2h-1.5v-5c0-.4-.3-.6-.6-.6-.2 0-.3.1-.5.2s-.2.3-.2.5v5h-1.5v1.2h1.5v9.5h-1.5v1.2h1.5v9.5h-1.5v1.2h1.5v9.5h-1.5v1.2h1.5v8.3h-5v3h2.7l-7.9 11.6h-3.4v1.7 5.7h-4.2v1.6 3.5.9 4.3.9 4.4.9 4.3.9 4.3.9 4.3.9 4.4.9 4.3.9 4.3.9 4.3.9 4.3.9 4.4.9 4.4.9 4.4.9 4.4.9 4.4.9 4.4.9 4.4.9 2.4h36.8v-2.3zm-19-101.8h-9.4l7.9-11.6h1.5zm1.3 0v-11.6h1.5l7.9 11.6z"/><path d="m269.2 164.2 3.8-4.4v-3.8l-16.5-13.2-16.4 15.8 8-7.7s-9.1-5.5-9.2-6.2c-.7-6 .4-16.7-5-19.1-1.3-.6-2.9-.9-4.9-1.1l-2.2-24.2c0-.1.1-.1.1-.2s.1-.2.1-.2l15.3-1.6-14.8-1.6c-.1-.9-.3-1.8-.6-2.7l12.8-6.8-14.6 4.2c-.7-.7-1.4-1.3-2.3-1.8l10.1-10.6-13.4 9.2c-1.2-.4-2.4-.6-3.7-.8l-1.8-16.9-1.8 16.9c-.6.1-1.3.2-1.9.3-.6.1-1.2.3-1.8.5l-13.5-9.2 10.2 10.7c-.4.3-.8.5-1.2.8-.1 0-.1.1-.1.1-.4.3-.7.6-1 .9l-14.6-4.2 12.8 6.8c-.1.1-.1.3-.1.4-.1.1-.1.2-.1.4-.1.2-.1.3-.1.5v.1c-.1.4-.1.8-.2 1.3l-11.5 1.2c-.4-.7-.7-1.5-1.1-2.3 0 0 0 0-.1 0-.1 0-.4 0-.9.1-.3-.9-.7-1.8-1-2.7 0-.1-.1-.1-.1-.2-.3-.8-.6-1.7-.8-2.5 0-.1-.1-.2-.1-.3-.3-.8-.5-1.6-.7-2.3 0-.1-.1-.3-.1-.4-.2-.7-.4-1.4-.6-2.2 0-.2-.1-.3-.1-.5-.2-.7-.4-1.3-.6-2 0-.2-.1-.3-.1-.5-.2-.6-.3-1.3-.5-1.9 0-.2-.1-.4-.1-.5-.1-.6-.3-1.2-.4-1.8 0-.2-.1-.4-.1-.6-.1-.6-.2-1.1-.3-1.6 0-.2-.1-.4-.1-.6-.1-.5-.2-1-.3-1.5 0-.2-.1-.4-.1-.6-.1-.5-.2-.9-.2-1.4 0-.2-.1-.4-.1-.7-.1-.4-.1-.9-.2-1.3 0-.2-.1-.5-.1-.7-.1-.4-.1-.8-.1-1.2 0-.3-.1-.5-.1-.8s-.1-.7-.1-1 0-.6-.1-.9 0-.6-.1-.9c0-.3 0-.7 0-1 0-.2 0-.5 0-.7 0-.5 0-1.1 0-1.6 0-.9 1.3-1.7 1.7-2.5.1-.1.1-.2.1-.3 0-.8 0-4.3 0-5.8v-1.1c0-.7-.6-1.3-1.3-1.3-.1 0-.3 0-.4.1-.1 0-.1 0-.2.1l.3-7.6v-.8h6.5v-7.5h-6.2l.1-3.6c2.5-1.7 3.4-4.1 3.3-6.6 0-1.3-.3-2.6-.7-3.8-1.3-4.3-3.9-8-3.9-8 .1.9.1 1.7 0 2.5-.4 3.3-2.4 5.5-4.9 8.9-.6.8-.9 1.5-1.2 2.2-.1.5-.2.9-.2 1.3-.1 2.2 1.4 3.7 1.4 3.7l.1 3.6h-6.3v7.5h6.5v.6l.2 6.2c-.4 0-.8.2-1.1.3-.2.1-.3.2-.5.3-.1.1-.3.2-.4.3 0 0-.1.1-.1.1-.1.1-.2.2-.3.3 0 .1-.1.1-.1.2-.1.1-.1.2-.2.3 0 .1-.1.2-.1.3s-.1.2-.1.2c0 .2-.1.4-.1.6v4.7c0 .2 0 .4.1.6 0 .1 0 .2.1.2 0 .1.1.2.1.3s.1.2.1.3.1.2.1.2c.1.1.1.2.2.3 0 0 .1.1.1.1.1.1.2.2.3.3 0 0 .1 0 .1.1.1.1.3.2.4.3.2.1.3.2.5.2.2.1.4.1.6.1-.1 2.3-.1 4.6-.2 6.8v.2 3 .3 3c0 2.1.1 4.1.2 6.1v.1c0 .9.1 1.8.1 2.7v.3c.1.8.1 1.7.1 2.5v.2c.1 1.8.2 3.5.4 5.1.1.8.1 1.5.2 2.3v.3c.1.7.1 1.3.2 2v.2c.2 2.2.5 4.1.7 5.9v.1c.1.6.2 1.1.2 1.7-.2.3-.4.6-.6.9 0 0 0 .1-.1.1-.2.3-.3.6-.5.9 0 .1-.1.1-.1.2-.1.3-.3.6-.4.9 0 .1-.1.2-.1.3-.1.3-.2.6-.3.9 0 .1-.1.2-.1.4-.1.3-.2.6-.2.9 0 .1-.1.3-.1.4-.1.3-.1.6-.2.9 0 .2-.1.3-.1.5-.1.3-.1.7-.1 1 0 .2-.1.3-.1.5-.1.5-.1 1-.1 1.6 0 0 .2.5.6 1.4 1 2.6 3.4 8.1 6.4 14.1.3.6.6 1.1.8 1.6 2 3.9 3.4 6.9 4.5 10.2 1.3 4.3 1.9 9.1 1.9 16.9v10.3h80.9c1-.8 1.1-1.8.9-2.8zm-69.2-50.6c-2.7-2.6-5.4-5.9-7.9-10.2 0-.1-.1-.1-.1-.2-.4-.7-.8-1.3-1.1-2-.1-.1-.1-.2-.2-.3-.4-.7-.8-1.4-1.1-2.2l5.4.6 6.1.6c0 .1.1.2.1.2s.1.1.1.2z"/></g></svg>