<?xml version="1.0" encoding="utf-8"?>
<!-- Generator: Adobe Illustrator 24.2.1, SVG Export Plug-In . SVG Version: 6.00 Build 0)  -->
<svg version="1.1" id="Layer_1" xmlns="http://www.w3.org/2000/svg" xmlns:xlink="http://www.w3.org/1999/xlink" x="0px" y="0px"
	 viewBox="0 0 1367.57 268.06" style="enable-background:new 0 0 1367.57 268.06;" xml:space="preserve">
<style type="text/css">
	.st0{fill:#33342E;}
	.st1{fill:none;}
</style>
<g>
	<g>
		<path class="st0" d="M840.49,55.36v0.51v44.62V202.3l65.03,65.03l65.03-65.03V100.49V55.87v-0.51H840.49z M944.72,90.34
			c-1.24-9.6-5.92-18.13-12.78-24.31h28.46v24.31H944.72z M960.4,181.07l-36.94-64.66l36.94,29.9V181.07z M850.64,146.04l37.25-29.9
			l-37.25,64.98V146.04z M900.66,114.28l-0.15,133.69l-48.61-48.61L900.66,114.28z M910.82,114.74l48.33,84.6l-48.47,48.47
			L910.82,114.74z M876.57,90.34c2.41-13.79,14.47-24.31,28.95-24.31s26.53,10.51,28.95,24.31H876.57z M850.64,90.34V66.03h28.46
			c-6.86,6.17-11.54,14.71-12.78,24.31H850.64z M865.98,100.49h25.18l-40.52,32.53v-32.53H865.98z M960.4,133.25l-40.46-32.75h25.12
			h15.34V133.25z"/>
		<g>
			<polygon class="st1" points="932.43,15.43 932.43,18.97 935.29,18.97 932.87,15.43 			"/>
			<polygon class="st1" points="929.16,18.97 932.03,18.97 932.03,15.43 931.58,15.43 			"/>
			<path class="st1" d="M901.99,30.64c-0.01-0.02-0.02-0.05-0.03-0.07l-1.86-0.2l-1.64-0.17c0.11,0.23,0.23,0.45,0.35,0.67
				c0.02,0.03,0.03,0.06,0.05,0.09c0.12,0.21,0.23,0.42,0.35,0.62c0.01,0.02,0.02,0.04,0.03,0.06c0.77,1.28,1.59,2.3,2.42,3.1
				l0.36-4.03c0,0,0,0,0,0C902,30.68,901.99,30.66,901.99,30.64z"/>
			<path class="st0" d="M888.73,34.1v-5.93h-1.64v-5.09h-0.45V20.5h-1.04v-1.87h-1.08v-0.79h-1.4l-0.18-4.1h0.18
				c0.15,0,0.27-0.12,0.27-0.27c0-0.15-0.12-0.27-0.27-0.27h-0.21l-0.34-7.7h-0.1h0h-0.1h0l-0.34,7.7h-0.2
				c-0.15,0-0.27,0.12-0.27,0.27c0,0.15,0.12,0.27,0.27,0.27h0.18l-0.18,4.1h-1.4v0.79h-1.08v0v1.87h-1.04v2.59h-0.45v5.09h-1.64
				v5.93h-1.12v16.98h14.73V34.1H888.73z"/>
			<polygon class="st0" points="970.36,33.75 970.36,32.39 964.17,27.53 957.98,32.39 957.98,33.75 957.98,51.08 970.36,51.08 			
				"/>
			<path class="st0" d="M853.35,49.22v-1.58v-1.15v-1.58v-1.15v-1.58v-1.15v-1.44h-1.22v-0.03v-7.7v-0.03l-1.66,0
				c-0.01-0.03-0.02-0.06-0.03-0.08v-0.58c0-0.56-0.14-1.08-0.38-1.54v-0.41c0-0.56-0.16-1.09-0.43-1.53v-0.26
				c0-0.72-0.31-1.38-0.8-1.83l-0.67-2.6h0.07c0.24,0,0.43-0.19,0.43-0.43c0-0.24-0.19-0.43-0.43-0.43h-0.58l-0.53-9.01l-0.53,9.01
				H846c-0.12,0-0.22,0.05-0.3,0.12c-0.08,0.08-0.12,0.18-0.12,0.3c0,0.12,0.05,0.22,0.12,0.3c0.08,0.08,0.18,0.12,0.3,0.12h0.07
				l-0.2,0.78l-0.47,1.83l0,0c-0.12,0.11-0.23,0.24-0.33,0.37c0,0,0,0,0,0c-0.05,0.06-0.09,0.13-0.13,0.2c0,0-0.01,0.01-0.01,0.01
				c-0.04,0.07-0.07,0.13-0.1,0.2c0,0.01-0.01,0.02-0.01,0.03c-0.03,0.06-0.05,0.13-0.08,0.2c-0.01,0.01-0.01,0.03-0.02,0.04
				c-0.02,0.06-0.04,0.13-0.05,0.19c0,0.02-0.01,0.04-0.02,0.06c-0.01,0.06-0.02,0.13-0.03,0.19c0,0.02-0.01,0.04-0.01,0.06
				c-0.01,0.09-0.01,0.17-0.01,0.26v0.26v0c-0.1,0.16-0.18,0.32-0.24,0.5c-0.01,0.02-0.02,0.05-0.03,0.07
				c-0.02,0.05-0.03,0.09-0.05,0.14c-0.02,0.07-0.04,0.14-0.05,0.21c-0.01,0.03-0.01,0.06-0.01,0.08c-0.01,0.06-0.02,0.12-0.03,0.18
				c0,0.03-0.01,0.05-0.01,0.08c-0.01,0.09-0.01,0.18-0.01,0.26v0.41c0,0,0,0,0,0c-0.03,0.06-0.06,0.13-0.09,0.19
				c-0.02,0.04-0.03,0.08-0.05,0.12c-0.02,0.06-0.04,0.12-0.06,0.17c-0.01,0.04-0.03,0.08-0.04,0.13c-0.02,0.07-0.04,0.13-0.05,0.2
				c-0.01,0.03-0.01,0.06-0.02,0.08c-0.02,0.09-0.03,0.18-0.04,0.27c0,0.02,0,0.04-0.01,0.07c-0.01,0.1-0.02,0.2-0.02,0.3v0.58
				c-0.01,0.03-0.03,0.07-0.04,0.1l-1.66,0v7.73l-1.22,0v1.44v1.15v1.58v1.15v1.58v1.15v1.58v1.15v0.71h12.47v-0.71V49.22z"/>
			<polygon class="st0" points="952.49,40.19 952.49,30.85 952.49,24.8 951.19,24.8 951.19,24.8 951.17,24.8 948.1,20.8 
				945.02,24.8 945.02,24.8 943.72,24.8 943.72,30.85 943.72,40.19 942.42,40.19 942.42,40.19 942.42,51.08 953.8,51.08 
				953.8,40.19 			"/>
			<path class="st0" d="M871.51,32.06v-0.51v-0.78h-2.9c-0.33-2.35-2.14-4.16-4.31-4.16h0c-0.14,0-0.27,0.01-0.4,0.02
				s-0.26,0.03-0.39,0.06c-0.52,0.11-1,0.32-1.44,0.61c-0.44,0.29-0.82,0.67-1.14,1.11c-0.48,0.66-0.81,1.47-0.94,2.35h-2.9v0.78
				v0.51v0.78v0v18.24h14.42V32.84V32.06z"/>
			<path class="st0" d="M937.86,50.1v-1.33v-0.28v-1.33v-0.28v-1.33v-0.28v-1.33v-0.28v-1.33v-0.28v-1.33v-0.28v-1.33v-0.28v-1.33
				v-0.28v-1.33v-0.28v-1.33v-0.28V32.7v-0.28v-1.33v-0.28v-1.33v-0.28v-1.33V27.6v-1.33V26v-1.33v-0.28v-1.33v-0.28v-1.08v-0.47
				h-1.27v-1.75v-0.51h-1.03l-2.42-3.55h0.83v-0.92h-1.54v-2.55h0.46v-0.38h-0.46v-2.9h0.46V8.3h-0.46V5.4h0.46V5.02h-0.46v-2.9
				h0.46V1.73h-0.46V0.2c0-0.11-0.09-0.2-0.2-0.2l0,0c-0.05,0-0.1,0.02-0.14,0.06c-0.04,0.04-0.06,0.09-0.06,0.14v1.53h-0.46v0.38
				h0.46v2.9h-0.46V5.4h0.46v2.9h-0.46v0.38h0.46v2.9h-0.46v0.38h0.46v2.55h-1.54v0.92h0.83l-2.42,3.55h-1.03h0v0.51v1.75h-1.27
				v0.47v1.08v0.28v1.33v0.28V26v0.28v0v1.33v0.28v1.33v0v0.28v1.33v0.28v1.33v0.28v1.33v0.28v1.33v0.28v1.33v0.28v0v1.33v0.28v1.33
				v0v0.28v1.33v0.28v1.33v0.28v1.33v0.28v1.33v0.28v1.33v0.28v0v1.33v0.28v0.71h11.26v-0.71V50.1z M932.03,18.97h-2.87l2.42-3.55
				h0.45V18.97z M932.43,18.97v-3.55h0.45l2.42,3.55H932.43z"/>
			<path class="st0" d="M922.83,50.24l1.16-1.35v-1.15l-5.03-4.04l-5.03,4.84l2.44-2.34c0,0-2.8-1.67-2.83-1.91
				c-0.21-1.83,0.11-5.1-1.52-5.85c-0.39-0.18-0.9-0.27-1.51-0.34l-0.66-7.39c0.01-0.02,0.02-0.04,0.03-0.06
				c0.01-0.02,0.02-0.05,0.03-0.07l4.69-0.49l-4.52-0.48c-0.01-0.28-0.08-0.56-0.19-0.81l3.9-2.09l-4.45,1.29
				c-0.2-0.21-0.44-0.4-0.71-0.57l3.11-3.27l-4.11,2.82c-0.36-0.12-0.74-0.19-1.14-0.23l-0.55-5.18v0l0,0l-0.55,5.18c0,0,0,0,0,0
				c-0.2,0.02-0.39,0.05-0.58,0.09c0,0,0,0,0,0c-0.19,0.04-0.37,0.09-0.55,0.14c0,0,0,0,0,0l-4.11-2.82l0,0l0,0l3.11,3.27
				c-0.13,0.08-0.24,0.16-0.36,0.25c-0.01,0.01-0.03,0.02-0.04,0.04c-0.11,0.09-0.21,0.18-0.31,0.28c0,0,0,0,0,0l-4.45-1.29
				l3.9,2.09c-0.02,0.04-0.03,0.08-0.05,0.12c-0.01,0.04-0.03,0.08-0.04,0.11c-0.02,0.05-0.03,0.1-0.04,0.15
				c0,0.01-0.01,0.03-0.01,0.04c-0.03,0.13-0.05,0.25-0.05,0.38l-3.45,0.36c-0.11-0.23-0.22-0.45-0.33-0.69c0,0-0.01,0-0.02,0
				c0,0,0,0,0,0c-0.04,0-0.13,0-0.27,0.02c0,0,0,0,0,0c0,0,0,0,0,0c-0.1-0.28-0.2-0.55-0.3-0.82c-0.01-0.02-0.02-0.04-0.02-0.07
				c-0.09-0.26-0.18-0.51-0.26-0.76c-0.01-0.03-0.02-0.07-0.03-0.1c-0.08-0.24-0.15-0.47-0.22-0.7c-0.01-0.04-0.03-0.08-0.04-0.12
				c-0.07-0.22-0.13-0.44-0.2-0.66c-0.01-0.05-0.03-0.09-0.04-0.14c-0.06-0.21-0.12-0.41-0.17-0.61c-0.01-0.05-0.03-0.1-0.04-0.15
				c-0.05-0.19-0.1-0.39-0.15-0.58c-0.01-0.05-0.03-0.11-0.04-0.16c-0.04-0.18-0.08-0.36-0.12-0.54c-0.01-0.06-0.03-0.12-0.04-0.17
				c-0.04-0.17-0.07-0.34-0.1-0.5c-0.01-0.06-0.02-0.12-0.04-0.18c-0.03-0.16-0.06-0.31-0.09-0.47c-0.01-0.06-0.02-0.13-0.03-0.19
				c-0.02-0.15-0.05-0.29-0.07-0.43c-0.01-0.07-0.02-0.14-0.03-0.2c-0.02-0.13-0.04-0.27-0.05-0.4c-0.01-0.07-0.02-0.14-0.03-0.21
				c-0.01-0.12-0.03-0.24-0.04-0.36c-0.01-0.08-0.01-0.16-0.02-0.23c-0.01-0.11-0.02-0.21-0.03-0.32c-0.01-0.09-0.01-0.17-0.02-0.26
				c-0.01-0.09-0.01-0.18-0.02-0.27c-0.01-0.1-0.01-0.2-0.01-0.3c0-0.07-0.01-0.14-0.01-0.21c0-0.17-0.01-0.33-0.01-0.49
				c0,0,0,0,0,0c0-0.27,0.41-0.5,0.51-0.75c0.01-0.04,0.02-0.07,0.02-0.11c0-0.23,0-1.33,0-1.78c0,0,0,0,0,0c0,0,0-0.01,0-0.01
				v-0.33c0-0.22-0.17-0.39-0.39-0.39c-0.04,0-0.08,0.01-0.12,0.02c-0.02,0.01-0.03,0.01-0.05,0.02l0.08-2.34l0.01-0.24h1.99v-2.31
				v0h-1.91l0.04-1.11c0.78-0.51,1.03-1.25,1.01-2.03c-0.01-0.39-0.09-0.79-0.2-1.18c-0.39-1.31-1.21-2.45-1.21-2.45
				c0.03,0.28,0.03,0.53,0,0.76c-0.12,1.01-0.73,1.7-1.5,2.71c-0.18,0.23-0.29,0.46-0.35,0.66c-0.04,0.14-0.06,0.27-0.07,0.39
				c-0.03,0.68,0.42,1.13,0.42,1.13l0.04,1.11h-1.91v2.31l0,0h1.99l0.01,0.19l0.07,1.91c0,0,0,0,0,0c-0.12,0.01-0.24,0.05-0.34,0.1
				c0,0,0,0,0,0c-0.05,0.03-0.1,0.06-0.14,0.09c0,0-0.01,0.01-0.01,0.01c-0.04,0.03-0.08,0.07-0.11,0.1
				c-0.01,0.01-0.02,0.02-0.03,0.03c-0.03,0.03-0.06,0.07-0.08,0.1c-0.01,0.02-0.02,0.04-0.03,0.06c-0.02,0.03-0.03,0.06-0.05,0.1
				c-0.01,0.03-0.02,0.07-0.03,0.1c-0.01,0.02-0.02,0.05-0.02,0.07c-0.01,0.06-0.02,0.12-0.02,0.19v0v1.43
				c0,0.06,0.01,0.13,0.02,0.19c0,0.02,0.01,0.05,0.02,0.07c0.01,0.03,0.02,0.07,0.03,0.1c0.01,0.03,0.03,0.06,0.04,0.09
				c0.01,0.02,0.02,0.05,0.04,0.07c0.02,0.03,0.05,0.06,0.07,0.1c0.01,0.01,0.02,0.03,0.03,0.04c0.03,0.03,0.07,0.07,0.1,0.09
				c0.01,0.01,0.01,0.01,0.02,0.02c0.04,0.03,0.08,0.06,0.13,0.08c0,0,0.01,0,0.01,0.01c0.05,0.03,0.1,0.05,0.15,0.06c0,0,0,0,0,0
				c0.06,0.02,0.11,0.03,0.17,0.04c-0.03,0.71-0.05,1.4-0.05,2.07c0,0.02,0,0.03,0,0.05c0,0.31,0,0.62,0,0.92c0,0.03,0,0.06,0,0.1
				c0,0.31,0,0.62,0.01,0.93c0,0,0,0,0,0c0.01,0.64,0.03,1.26,0.05,1.86c0,0.01,0,0.01,0,0.02c0.01,0.28,0.02,0.55,0.04,0.82
				c0,0.03,0,0.06,0.01,0.1c0.01,0.26,0.03,0.51,0.05,0.76c0,0.02,0,0.04,0,0.05c0.04,0.55,0.08,1.07,0.12,1.57c0,0,0,0,0,0.01
				c0.02,0.24,0.04,0.47,0.06,0.69c0,0.03,0.01,0.06,0.01,0.09c0.02,0.21,0.04,0.41,0.06,0.6c0,0.02,0,0.05,0.01,0.07
				c0.07,0.66,0.15,1.27,0.22,1.8c0,0.01,0,0.02,0,0.03c0.02,0.18,0.05,0.35,0.07,0.51c-0.06,0.09-0.11,0.18-0.17,0.28
				c-0.01,0.01-0.01,0.02-0.02,0.03c-0.05,0.09-0.09,0.18-0.14,0.27c-0.01,0.02-0.02,0.04-0.03,0.06c-0.04,0.09-0.08,0.18-0.11,0.27
				c-0.01,0.03-0.02,0.06-0.03,0.08c-0.03,0.09-0.06,0.18-0.09,0.27c-0.01,0.04-0.02,0.07-0.04,0.11c-0.03,0.09-0.05,0.18-0.08,0.27
				c-0.01,0.04-0.02,0.09-0.03,0.13c-0.02,0.09-0.04,0.19-0.06,0.28c-0.01,0.05-0.02,0.1-0.03,0.15c-0.02,0.1-0.03,0.21-0.05,0.32
				c-0.01,0.05-0.01,0.09-0.02,0.14c-0.02,0.16-0.03,0.32-0.04,0.49c0,0,0.06,0.16,0.18,0.44c0.32,0.78,1.03,2.49,1.94,4.33
				c0.08,0.17,0.17,0.34,0.25,0.5c0.6,1.18,1.05,2.1,1.37,3.12c0.4,1.31,0.59,2.78,0.59,5.17c0,0.57,0,1.67,0,3.14h24.73
				C922.85,50.82,922.9,50.52,922.83,50.24z M901.65,34.73c-0.83-0.81-1.65-1.82-2.42-3.1c-0.01-0.02-0.02-0.04-0.03-0.06
				c-0.12-0.2-0.24-0.4-0.35-0.62c-0.02-0.03-0.03-0.06-0.05-0.09c-0.12-0.22-0.23-0.44-0.35-0.67l1.64,0.17l1.86,0.2
				c0.01,0.02,0.02,0.05,0.03,0.07c0.01,0.02,0.02,0.04,0.03,0.06c0,0,0,0,0,0L901.65,34.73z"/>
		</g>
	</g>
	<g>
		<path class="st0" d="M24.39,151.86c9.43,8.2,21.72,13.93,32.79,13.93c12.5,0,18.65-4.92,18.65-12.91c0-8.4-7.58-11.07-19.26-15.98
			l-17.21-7.38c-13.94-5.53-27.05-17.01-27.05-36.48c0-22.13,19.88-39.76,47.54-39.76c15.37,0,31.56,6.15,43.03,17.62L87.71,89.98
			c-8.81-6.76-17.21-10.66-27.87-10.66c-10.25,0-17.01,4.51-17.01,12.09c0,8.2,8.81,11.07,20.49,15.78l17.01,6.97
			c16.19,6.56,26.44,17.42,26.44,36.27c0,22.13-18.44,41.39-50.21,41.39c-17.42,0-35.86-6.56-49.59-19.26L24.39,151.86z"/>
		<path class="st0" d="M128.49,55.75h30.12v74.8c0,26.23,8.2,35.25,23.16,35.25s23.77-9.02,23.77-35.25v-74.8h29.1v71.72
			c0,44.88-18.24,64.35-52.87,64.35s-53.28-19.47-53.28-64.35V55.75z"/>
		<path class="st0" d="M264.97,55.75h30.94l34.84,66.4l13.32,29.51h0.82c-1.43-14.14-3.89-32.99-3.89-48.77V55.75h28.69v133.61
			h-30.94l-34.84-66.6l-13.12-29.1h-0.82c1.43,14.75,3.89,32.58,3.89,48.36v47.34h-28.89V55.75z"/>
		<path class="st0" d="M473.38,189.36l-25.62-48.16h-16.39v48.16h-30.33V55.75h48.16c28.28,0,51.64,9.84,51.64,41.6
			c0,19.67-9.63,32.17-23.77,38.53l30.12,53.49H473.38z M431.37,117.23h15.37c15.78,0,24.39-6.76,24.39-19.88
			s-8.61-17.62-24.39-17.62h-15.37V117.23z"/>
		<path class="st0" d="M527.07,55.75h30.33v133.61h-30.33V55.75z"/>
		<path class="st0" d="M597.36,151.86c9.43,8.2,21.72,13.93,32.79,13.93c12.5,0,18.65-4.92,18.65-12.91
			c0-8.4-7.58-11.07-19.26-15.98l-17.21-7.38c-13.93-5.53-27.05-17.01-27.05-36.48c0-22.13,19.88-39.76,47.54-39.76
			c15.37,0,31.56,6.15,43.04,17.62l-15.17,19.06c-8.81-6.76-17.21-10.66-27.87-10.66c-10.25,0-17.01,4.51-17.01,12.09
			c0,8.2,8.81,11.07,20.49,15.78l17.01,6.97c16.19,6.56,26.44,17.42,26.44,36.27c0,22.13-18.44,41.39-50.21,41.39
			c-17.42,0-35.86-6.56-49.59-19.26L597.36,151.86z"/>
		<path class="st0" d="M702.08,55.75h83.81v25.41H732.4v26.85h45.49v25.21H732.4v30.74h55.54v25.41h-85.86V55.75z"/>
	</g>
	<g>
		<path class="st0" d="M1024.52,55.75h30.95l34.84,66.4l13.32,29.51h0.82c-1.44-14.14-3.89-32.99-3.89-48.77V55.75h28.69v133.61
			h-30.94l-34.84-66.6l-13.12-29.1h-0.82c1.43,14.75,3.89,32.58,3.89,48.36v47.34h-28.89V55.75z"/>
		<path class="st0" d="M1183.54,141.82l-40.17-86.07h32.17l12.09,30.74c3.48,10.04,6.97,19.26,10.86,29.51h0.82
			c3.69-10.25,7.58-19.47,11.27-29.51l11.89-30.74h31.56l-40.37,86.07v47.54h-30.12V141.82z"/>
		<path class="st0" d="M1321.67,53.29c16.6,0,30.53,8.2,39.55,17.42l-16.6,18.65c-6.76-6.15-13.12-10.04-22.54-10.04
			c-18.65,0-33.2,16.19-33.2,43.03c0,27.46,12.91,43.44,32.38,43.44c11.07,0,18.85-4.71,25.41-11.89l16.6,18.24
			c-11.07,12.91-25.82,19.67-42.42,19.67c-34.63,0-62.91-23.57-62.91-68.44C1257.93,79.11,1287.24,53.29,1321.67,53.29z"/>
	</g>
</g>
</svg>
