<?xml version="1.0" encoding="utf-8"?>
<!-- Generator: Adobe Illustrator 24.2.1, SVG Export Plug-In . SVG Version: 6.00 Build 0)  -->
<svg version="1.1" id="Layer_1" xmlns="http://www.w3.org/2000/svg" xmlns:xlink="http://www.w3.org/1999/xlink" x="0px" y="0px"
	 viewBox="0 0 1367.6 268.1" style="enable-background:new 0 0 1367.6 268.1;" xml:space="preserve">
<style type="text/css">
	.st0{fill:#FFDE16;}
</style>
<g>
	<g>
		<path class="st0" d="M840.5,55.4v0.5v44.6v101.8l65,65l65-65V100.5V55.9v-0.5H840.5z M944.7,90.3c-1.2-9.6-5.9-18.1-12.8-24.3
			h28.5v24.3H944.7z M960.4,181.1l-36.9-64.7l36.9,29.9V181.1z M850.6,146l37.2-29.9l-37.2,65V146z M900.7,114.3L900.5,248
			l-48.6-48.6L900.7,114.3z M910.8,114.7l48.3,84.6l-48.5,48.5L910.8,114.7z M876.6,90.3C879,76.5,891,66,905.5,66
			s26.5,10.5,28.9,24.3H876.6z M850.6,90.3V66h28.5c-6.9,6.2-11.5,14.7-12.8,24.3H850.6z M866,100.5h25.2L850.6,133v-32.5H866z
			 M960.4,133.2l-40.5-32.8h25.1h15.3V133.2z"/>
		<g>
			<polygon class="st0" points="932.4,15.4 932.4,19 935.3,19 932.9,15.4 			"/>
			<polygon class="st0" points="929.2,19 932,19 932,15.4 931.6,15.4 			"/>
			<path class="st0" d="M902,30.6C902,30.6,902,30.6,902,30.6l-1.9-0.3l-1.6-0.2c0.1,0.2,0.2,0.4,0.3,0.7c0,0,0,0.1,0,0.1
				c0.1,0.2,0.2,0.4,0.4,0.6c0,0,0,0,0,0.1c0.8,1.3,1.6,2.3,2.4,3.1L902,30.6C902,30.7,902,30.7,902,30.6
				C902,30.7,902,30.7,902,30.6z"/>
			<path class="st0" d="M888.7,34.1v-5.9h-1.6v-5.1h-0.4v-2.6h-1v-1.9h-1.1v-0.8h-1.4l-0.2-4.1h0.2c0.1,0,0.3-0.1,0.3-0.3
				c0-0.1-0.1-0.3-0.3-0.3h-0.2l-0.3-7.7h-0.1h0h-0.1h0l-0.3,7.7h-0.2c-0.1,0-0.3,0.1-0.3,0.3c0,0.1,0.1,0.3,0.3,0.3h0.2l-0.2,4.1
				h-1.4v0.8h-1.1v0v1.9h-1v2.6h-0.4v5.1h-1.6v5.9h-1.1v17h14.7v-17H888.7z"/>
			<polygon class="st0" points="970.4,33.7 970.4,32.4 964.2,27.5 958,32.4 958,33.7 958,51.1 970.4,51.1 			"/>
			<path class="st0" d="M853.3,49.2v-1.6v-1.1v-1.6v-1.1v-1.6V41v-1.4h-1.2v0v-7.7v0l-1.7,0c0,0,0-0.1,0-0.1v-0.6
				c0-0.6-0.1-1.1-0.4-1.5v-0.4c0-0.6-0.2-1.1-0.4-1.5v-0.3c0-0.7-0.3-1.4-0.8-1.8l-0.7-2.6h0.1c0.2,0,0.4-0.2,0.4-0.4
				c0-0.2-0.2-0.4-0.4-0.4h-0.6l-0.5-9l-0.5,9H846c-0.1,0-0.2,0-0.3,0.1c-0.1,0.1-0.1,0.2-0.1,0.3c0,0.1,0,0.2,0.1,0.3
				c0.1,0.1,0.2,0.1,0.3,0.1h0.1l-0.2,0.8l-0.5,1.8l0,0c-0.1,0.1-0.2,0.2-0.3,0.4c0,0,0,0,0,0c0,0.1-0.1,0.1-0.1,0.2c0,0,0,0,0,0
				c0,0.1-0.1,0.1-0.1,0.2c0,0,0,0,0,0c0,0.1-0.1,0.1-0.1,0.2c0,0,0,0,0,0c0,0.1,0,0.1-0.1,0.2c0,0,0,0,0,0.1c0,0.1,0,0.1,0,0.2
				c0,0,0,0,0,0.1c0,0.1,0,0.2,0,0.3v0.3v0c-0.1,0.2-0.2,0.3-0.2,0.5c0,0,0,0,0,0.1c0,0,0,0.1,0,0.1c0,0.1,0,0.1-0.1,0.2
				c0,0,0,0.1,0,0.1c0,0.1,0,0.1,0,0.2c0,0,0,0.1,0,0.1c0,0.1,0,0.2,0,0.3v0.4c0,0,0,0,0,0c0,0.1-0.1,0.1-0.1,0.2c0,0,0,0.1-0.1,0.1
				c0,0.1,0,0.1-0.1,0.2c0,0,0,0.1,0,0.1c0,0.1,0,0.1-0.1,0.2c0,0,0,0.1,0,0.1c0,0.1,0,0.2,0,0.3c0,0,0,0,0,0.1c0,0.1,0,0.2,0,0.3
				v0.6c0,0,0,0.1,0,0.1l-1.7,0v7.7l-1.2,0V41v1.1v1.6v1.1v1.6v1.1v1.6v1.1v0.7h12.5v-0.7V49.2z"/>
			<polygon class="st0" points="952.5,40.2 952.5,30.9 952.5,24.8 951.2,24.8 951.2,24.8 951.2,24.8 948.1,20.8 945,24.8 945,24.8 
				943.7,24.8 943.7,30.9 943.7,40.2 942.4,40.2 942.4,40.2 942.4,51.1 953.8,51.1 953.8,40.2 			"/>
			<path class="st0" d="M871.5,32.1v-0.5v-0.8h-2.9c-0.3-2.4-2.1-4.2-4.3-4.2h0c-0.1,0-0.3,0-0.4,0s-0.3,0-0.4,0.1
				c-0.5,0.1-1,0.3-1.4,0.6c-0.4,0.3-0.8,0.7-1.1,1.1c-0.5,0.7-0.8,1.5-0.9,2.4h-2.9v0.8v0.5v0.8v0v18.2h14.4V32.8V32.1z"/>
			<path class="st0" d="M937.9,50.1v-1.3v-0.3v-1.3v-0.3v-1.3v-0.3v-1.3v-0.3v-1.3v-0.3v-1.3v-0.3v-1.3v-0.3v-1.3v-0.3v-1.3v-0.3
				v-1.3V34v-1.3v-0.3v-1.3v-0.3v-1.3v-0.3v-1.3v-0.3v-1.3V26v-1.3v-0.3v-1.3v-0.3v-1.1v-0.5h-1.3v-1.8V19h-1l-2.4-3.5h0.8v-0.9
				h-1.5V12h0.5v-0.4h-0.5V8.7h0.5V8.3h-0.5V5.4h0.5V5h-0.5V2.1h0.5V1.7h-0.5V0.2c0-0.1-0.1-0.2-0.2-0.2l0,0c-0.1,0-0.1,0-0.1,0.1
				c0,0-0.1,0.1-0.1,0.1v1.5h-0.5v0.4h0.5V5h-0.5v0.4h0.5v2.9h-0.5v0.4h0.5v2.9h-0.5V12h0.5v2.5h-1.5v0.9h0.8l-2.4,3.5h-1h0v0.5v1.8
				h-1.3v0.5v1.1v0.3v1.3v0.3V26v0.3v0v1.3v0.3v1.3v0v0.3v1.3v0.3v1.3v0.3V34v0.3v1.3v0.3v1.3v0.3v0v1.3v0.3v1.3v0v0.3v1.3v0.3v1.3
				v0.3v1.3v0.3v1.3v0.3v1.3v0.3v0v1.3v0.3v0.7h11.3v-0.7V50.1z M932,19h-2.9l2.4-3.5h0.4V19z M932.4,19v-3.5h0.4l2.4,3.5H932.4z"/>
			<path class="st0" d="M922.8,50.2l1.2-1.3v-1.1l-5-4l-5,4.8l2.4-2.3c0,0-2.8-1.7-2.8-1.9c-0.2-1.8,0.1-5.1-1.5-5.9
				c-0.4-0.2-0.9-0.3-1.5-0.3l-0.7-7.4c0,0,0,0,0-0.1c0,0,0,0,0-0.1l4.7-0.5l-4.5-0.5c0-0.3-0.1-0.6-0.2-0.8l3.9-2.1l-4.5,1.3
				c-0.2-0.2-0.4-0.4-0.7-0.6l3.1-3.3l-4.1,2.8c-0.4-0.1-0.7-0.2-1.1-0.2l-0.5-5.2v0l0,0l-0.5,5.2c0,0,0,0,0,0c-0.2,0-0.4,0-0.6,0.1
				c0,0,0,0,0,0c-0.2,0-0.4,0.1-0.6,0.1c0,0,0,0,0,0l-4.1-2.8l0,0l0,0l3.1,3.3c-0.1,0.1-0.2,0.2-0.4,0.3c0,0,0,0,0,0
				c-0.1,0.1-0.2,0.2-0.3,0.3c0,0,0,0,0,0l-4.5-1.3l3.9,2.1c0,0,0,0.1,0,0.1c0,0,0,0.1,0,0.1c0,0.1,0,0.1,0,0.2c0,0,0,0,0,0
				c0,0.1,0,0.3-0.1,0.4l-3.5,0.4c-0.1-0.2-0.2-0.5-0.3-0.7c0,0,0,0,0,0c0,0,0,0,0,0c0,0-0.1,0-0.3,0c0,0,0,0,0,0c0,0,0,0,0,0
				c-0.1-0.3-0.2-0.6-0.3-0.8c0,0,0,0,0-0.1c-0.1-0.3-0.2-0.5-0.3-0.8c0,0,0-0.1,0-0.1c-0.1-0.2-0.2-0.5-0.2-0.7c0,0,0-0.1,0-0.1
				c-0.1-0.2-0.1-0.4-0.2-0.7c0,0,0-0.1,0-0.1c-0.1-0.2-0.1-0.4-0.2-0.6c0-0.1,0-0.1,0-0.2c-0.1-0.2-0.1-0.4-0.1-0.6
				c0-0.1,0-0.1,0-0.2c0-0.2-0.1-0.4-0.1-0.5c0-0.1,0-0.1,0-0.2c0-0.2-0.1-0.3-0.1-0.5c0-0.1,0-0.1,0-0.2c0-0.2-0.1-0.3-0.1-0.5
				c0-0.1,0-0.1,0-0.2c0-0.1,0-0.3-0.1-0.4c0-0.1,0-0.1,0-0.2c0-0.1,0-0.3-0.1-0.4c0-0.1,0-0.1,0-0.2c0-0.1,0-0.2,0-0.4
				c0-0.1,0-0.2,0-0.2c0-0.1,0-0.2,0-0.3c0-0.1,0-0.2,0-0.3c0-0.1,0-0.2,0-0.3c0-0.1,0-0.2,0-0.3c0-0.1,0-0.1,0-0.2
				c0-0.2,0-0.3,0-0.5c0,0,0,0,0,0c0-0.3,0.4-0.5,0.5-0.8c0,0,0-0.1,0-0.1c0-0.2,0-1.3,0-1.8c0,0,0,0,0,0c0,0,0,0,0,0v-0.3
				c0-0.2-0.2-0.4-0.4-0.4c0,0-0.1,0-0.1,0c0,0,0,0,0,0l0.1-2.3l0-0.2h2v-2.3v0h-1.9l0-1.1c0.8-0.5,1-1.2,1-2c0-0.4-0.1-0.8-0.2-1.2
				c-0.4-1.3-1.2-2.4-1.2-2.4c0,0.3,0,0.5,0,0.8c-0.1,1-0.7,1.7-1.5,2.7c-0.2,0.2-0.3,0.5-0.4,0.7c0,0.1-0.1,0.3-0.1,0.4
				c0,0.7,0.4,1.1,0.4,1.1l0,1.1h-1.9v2.3l0,0h2l0,0.2l0.1,1.9c0,0,0,0,0,0c-0.1,0-0.2,0-0.3,0.1c0,0,0,0,0,0
				c-0.1,0-0.1,0.1-0.1,0.1c0,0,0,0,0,0c0,0-0.1,0.1-0.1,0.1c0,0,0,0,0,0c0,0-0.1,0.1-0.1,0.1c0,0,0,0,0,0.1c0,0,0,0.1,0,0.1
				c0,0,0,0.1,0,0.1c0,0,0,0,0,0.1c0,0.1,0,0.1,0,0.2v0v1.4c0,0.1,0,0.1,0,0.2c0,0,0,0,0,0.1c0,0,0,0.1,0,0.1c0,0,0,0.1,0,0.1
				c0,0,0,0,0,0.1c0,0,0,0.1,0.1,0.1c0,0,0,0,0,0c0,0,0.1,0.1,0.1,0.1c0,0,0,0,0,0c0,0,0.1,0.1,0.1,0.1c0,0,0,0,0,0
				c0,0,0.1,0,0.2,0.1c0,0,0,0,0,0c0.1,0,0.1,0,0.2,0c0,0.7,0,1.4-0.1,2.1c0,0,0,0,0,0c0,0.3,0,0.6,0,0.9c0,0,0,0.1,0,0.1
				c0,0.3,0,0.6,0,0.9c0,0,0,0,0,0c0,0.6,0,1.3,0.1,1.9c0,0,0,0,0,0c0,0.3,0,0.6,0,0.8c0,0,0,0.1,0,0.1c0,0.3,0,0.5,0,0.8
				c0,0,0,0,0,0.1c0,0.5,0.1,1.1,0.1,1.6c0,0,0,0,0,0c0,0.2,0,0.5,0.1,0.7c0,0,0,0.1,0,0.1c0,0.2,0,0.4,0.1,0.6c0,0,0,0,0,0.1
				c0.1,0.7,0.1,1.3,0.2,1.8c0,0,0,0,0,0c0,0.2,0,0.3,0.1,0.5c-0.1,0.1-0.1,0.2-0.2,0.3c0,0,0,0,0,0c0,0.1-0.1,0.2-0.1,0.3
				c0,0,0,0,0,0.1c0,0.1-0.1,0.2-0.1,0.3c0,0,0,0.1,0,0.1c0,0.1-0.1,0.2-0.1,0.3c0,0,0,0.1,0,0.1c0,0.1-0.1,0.2-0.1,0.3
				c0,0,0,0.1,0,0.1c0,0.1,0,0.2-0.1,0.3c0,0,0,0.1,0,0.1c0,0.1,0,0.2,0,0.3c0,0,0,0.1,0,0.1c0,0.2,0,0.3,0,0.5c0,0,0.1,0.2,0.2,0.4
				c0.3,0.8,1,2.5,1.9,4.3c0.1,0.2,0.2,0.3,0.3,0.5c0.6,1.2,1.1,2.1,1.4,3.1c0.4,1.3,0.6,2.8,0.6,5.2c0,0.6,0,1.7,0,3.1h24.7
				C922.8,50.8,922.9,50.5,922.8,50.2z M901.7,34.7c-0.8-0.8-1.6-1.8-2.4-3.1c0,0,0,0,0-0.1c-0.1-0.2-0.2-0.4-0.4-0.6
				c0,0,0-0.1,0-0.1c-0.1-0.2-0.2-0.4-0.3-0.7l1.6,0.2l1.9,0.2c0,0,0,0,0,0.1c0,0,0,0,0,0.1c0,0,0,0,0,0L901.7,34.7z"/>
		</g>
	</g>
	<g>
		<path class="st0" d="M24.4,151.9c9.4,8.2,21.7,13.9,32.8,13.9c12.5,0,18.6-4.9,18.6-12.9c0-8.4-7.6-11.1-19.3-16l-17.2-7.4
			c-13.9-5.5-27.1-17-27.1-36.5c0-22.1,19.9-39.8,47.5-39.8c15.4,0,31.6,6.1,43,17.6L87.7,90c-8.8-6.8-17.2-10.7-27.9-10.7
			c-10.2,0-17,4.5-17,12.1c0,8.2,8.8,11.1,20.5,15.8l17,7c16.2,6.6,26.4,17.4,26.4,36.3c0,22.1-18.4,41.4-50.2,41.4
			c-17.4,0-35.9-6.6-49.6-19.3L24.4,151.9z"/>
		<path class="st0" d="M128.5,55.8h30.1v74.8c0,26.2,8.2,35.2,23.2,35.2s23.8-9,23.8-35.2V55.8h29.1v71.7
			c0,44.9-18.2,64.3-52.9,64.3s-53.3-19.5-53.3-64.3V55.8z"/>
		<path class="st0" d="M265,55.8h30.9l34.8,66.4l13.3,29.5h0.8c-1.4-14.1-3.9-33-3.9-48.8V55.8h28.7v133.6h-30.9l-34.8-66.6
			l-13.1-29.1H290c1.4,14.8,3.9,32.6,3.9,48.4v47.3H265V55.8z"/>
		<path class="st0" d="M473.4,189.4l-25.6-48.2h-16.4v48.2H401V55.8h48.2c28.3,0,51.6,9.8,51.6,41.6c0,19.7-9.6,32.2-23.8,38.5
			l30.1,53.5H473.4z M431.4,117.2h15.4c15.8,0,24.4-6.8,24.4-19.9s-8.6-17.6-24.4-17.6h-15.4V117.2z"/>
		<path class="st0" d="M527.1,55.8h30.3v133.6h-30.3V55.8z"/>
		<path class="st0" d="M597.4,151.9c9.4,8.2,21.7,13.9,32.8,13.9c12.5,0,18.6-4.9,18.6-12.9c0-8.4-7.6-11.1-19.3-16l-17.2-7.4
			c-13.9-5.5-27-17-27-36.5c0-22.1,19.9-39.8,47.5-39.8c15.4,0,31.6,6.1,43,17.6L660.7,90c-8.8-6.8-17.2-10.7-27.9-10.7
			c-10.2,0-17,4.5-17,12.1c0,8.2,8.8,11.1,20.5,15.8l17,7c16.2,6.6,26.4,17.4,26.4,36.3c0,22.1-18.4,41.4-50.2,41.4
			c-17.4,0-35.9-6.6-49.6-19.3L597.4,151.9z"/>
		<path class="st0" d="M702.1,55.8h83.8v25.4h-53.5V108h45.5v25.2h-45.5V164h55.5v25.4h-85.9V55.8z"/>
	</g>
	<g>
		<path class="st0" d="M1024.5,55.8h30.9l34.8,66.4l13.3,29.5h0.8c-1.4-14.1-3.9-33-3.9-48.8V55.8h28.7v133.6h-30.9l-34.8-66.6
			l-13.1-29.1h-0.8c1.4,14.8,3.9,32.6,3.9,48.4v47.3h-28.9V55.8z"/>
		<path class="st0" d="M1183.5,141.8l-40.2-86.1h32.2l12.1,30.7c3.5,10,7,19.3,10.9,29.5h0.8c3.7-10.2,7.6-19.5,11.3-29.5l11.9-30.7
			h31.6l-40.4,86.1v47.5h-30.1V141.8z"/>
		<path class="st0" d="M1321.7,53.3c16.6,0,30.5,8.2,39.6,17.4l-16.6,18.6c-6.8-6.1-13.1-10-22.5-10c-18.6,0-33.2,16.2-33.2,43
			c0,27.5,12.9,43.4,32.4,43.4c11.1,0,18.9-4.7,25.4-11.9l16.6,18.2c-11.1,12.9-25.8,19.7-42.4,19.7c-34.6,0-62.9-23.6-62.9-68.4
			C1257.9,79.1,1287.2,53.3,1321.7,53.3z"/>
	</g>
</g>
</svg>
